<?xml version="1.0" encoding="UTF-8" standalone="no"?>
<!-- Created with Inkscape (http://www.inkscape.org/) -->

<svg
   xmlns:dc="http://purl.org/dc/elements/1.1/"
   xmlns:cc="http://creativecommons.org/ns#"
   xmlns:rdf="http://www.w3.org/1999/02/22-rdf-syntax-ns#"
   xmlns:svg="http://www.w3.org/2000/svg"
   xmlns="http://www.w3.org/2000/svg"
   xmlns:sodipodi="http://sodipodi.sourceforge.net/DTD/sodipodi-0.dtd"
   xmlns:inkscape="http://www.inkscape.org/namespaces/inkscape"
   version="1.1"
   id="svg2"
   xml:space="preserve"
   width="617.79993"
   height="452.46265"
   viewBox="0 0 617.79993 452.46265"
   sodipodi:docname="about-us.svg"
   inkscape:version="0.92.4 (5da689c313, 2019-01-14)"><metadata
     id="metadata8"><rdf:RDF><cc:Work
         rdf:about=""><dc:format>image/svg+xml</dc:format><dc:type
           rdf:resource="http://purl.org/dc/dcmitype/StillImage" /><dc:title></dc:title></cc:Work></rdf:RDF></metadata><defs
     id="defs6" /><sodipodi:namedview
     pagecolor="#ffffff"
     bordercolor="#666666"
     borderopacity="1"
     objecttolerance="10"
     gridtolerance="10"
     guidetolerance="10"
     inkscape:pageopacity="0"
     inkscape:pageshadow="2"
     inkscape:window-width="1366"
     inkscape:window-height="715"
     id="namedview4"
     showgrid="false"
     inkscape:zoom="0.1251579"
     inkscape:cx="-1010.615"
     inkscape:cy="1840.8268"
     inkscape:window-x="-8"
     inkscape:window-y="-8"
     inkscape:window-maximized="1"
     inkscape:current-layer="g10" /><g
     id="g10"
     inkscape:groupmode="layer"
     inkscape:label="ink_ext_XXXXXX"
     transform="matrix(1.3333333,0,0,-1.3333333,-20.966133,552.89599)"><path
       inkscape:connector-curvature="0"
       id="path16"
       style="fill:#abdde7;fill-opacity:1;fill-rule:nonzero;stroke:none;stroke-width:0.1"
       d="m 216.787,341.896 c -15.627,56.689 -86.048,74.951 -126.4061,32.583 -0.5797,-0.608 -1.1582,-1.227 -1.7368,-1.855 -57.8589,-62.895 -30.5257,-217.887 90.2239,-257.171 120.749,-39.2831 246.346,32.452 253.402,96.579 7.055,64.127 -48.653,84.277 -135.105,66.345 -48.844,-10.131 -70.65,28.228 -80.378,63.519" /><path
       inkscape:connector-curvature="0"
       id="path18"
       style="fill:#abdde7;fill-opacity:1;fill-rule:nonzero;stroke:none;stroke-width:0.1"
       d="m 317.234,332.199 c -16.155,-2.63 -20.632,-16.944 -8.159,-27.098 4.123,-3.356 10.012,-6.145 18.4,-7.536 31.955,-5.301 48.911,8.836 36.102,27.166 -7.905,11.314 -30.332,10.075 -46.343,7.468" /><path
       inkscape:connector-curvature="0"
       id="path20"
       style="fill:#abdde7;fill-opacity:1;fill-rule:nonzero;stroke:none;stroke-width:0.1"
       d="m 59.6352,217.655 c -10.0434,12.925 -24.7539,10.003 -27.6965,-5.81 -0.9731,-5.227 -0.602,-11.731 2.1922,-19.762 10.6441,-30.592 31.1742,-38.71 41.1351,-18.689 6.1481,12.357 -5.6765,31.453 -15.6308,44.261" /><path
       inkscape:connector-curvature="0"
       id="path22"
       style="fill:#abdde7;fill-opacity:1;fill-rule:nonzero;stroke:none;stroke-width:0.1"
       d="m 443.658,204.579 c -1.488,-7.791 4.945,-13.309 12.235,-10.308 2.409,0.993 4.839,2.906 7.002,6.269 8.236,12.813 4.065,23.804 -7.404,22.676 -7.077,-0.696 -10.358,-10.916 -11.833,-18.637" /><path
       inkscape:connector-curvature="0"
       id="path24"
       style="fill:#abdde7;fill-opacity:1;fill-rule:nonzero;stroke:none;stroke-width:0.1"
       d="m 402.815,286.796 c 7.765,-1.62 13.392,4.718 10.515,12.058 -0.951,2.426 -2.823,4.889 -6.149,7.108 -12.67,8.453 -23.731,4.47 -22.798,-7.016 0.576,-7.089 10.737,-10.544 18.432,-12.15" /><path
       inkscape:connector-curvature="0"
       id="path26"
       style="fill:#abdde7;fill-opacity:1;fill-rule:nonzero;stroke:none;stroke-width:0.1"
       d="m 214.089,370.17 c 6.148,-5.012 14.061,-1.975 14.884,5.866 0.272,2.591 -0.256,5.639 -2.188,9.14 -7.358,13.336 -19.011,14.889 -23.469,4.263 -2.751,-6.559 4.681,-14.302 10.773,-19.269" /><path
       inkscape:connector-curvature="0"
       id="path28"
       style="fill:#373d9c;fill-opacity:1;fill-rule:nonzero;stroke:none;stroke-width:0.1"
       d="m 462.909,165.604 c 12.329,12.394 21.718,26.4 12.378,28.583 -9.349,2.187 -25.05,-22.222 -27.786,-44.439 l -2.738,-7.335 c 2.277,16.156 -3.259,35.835 -11.365,36.647 -8.053,0.805 -3.178,-11.96 3.218,-22.876 4.869,-8.311 6.153,-14.867 6.474,-18.254 l -12.933,-34.644 c 3.532,25.595 -5.238,56.648 -18.062,57.931 -12.78,1.278 -5.045,-18.977 5.105,-36.298 7.671,-13.09 9.735,-23.443 10.262,-28.853 l -2.578,-6.907 c 1.128,-0.636 2.259,-1.2629 3.393,-1.8852 l 15.386,41.2162 c 2.968,2.216 7.475,4.894 13.892,7.065 11.986,4.054 24.033,10.503 17.421,15.172 -5.739,4.051 -19.228,-3.748 -28.52,-14.754 l 5.32,14.253 c 2.4,4.128 5.812,10.029 11.133,15.378" /><path
       inkscape:connector-curvature="0"
       id="path30"
       style="fill:#373d9c;fill-opacity:1;fill-rule:nonzero;stroke:none;stroke-width:0.1"
       d="m 74.2719,327.301 c 1.5988,14.97 0.3543,29.437 -7.0957,25.869 -7.4567,-3.572 -4.8434,-28.428 5.2957,-44.823 l 2.1148,-6.402 c -7.1801,12.077 -21.5062,22.309 -27.3863,18.485 -5.843,-3.801 4.3117,-9.746 14.4926,-13.629 7.7496,-2.956 12.1449,-6.667 14.1871,-8.769 l 9.9894,-30.237 c -11.4246,19.093 -34.0543,35.22 -43.3582,29.168 -9.2715,-6.03 6.8418,-15.463 22.9953,-21.624 12.2075,-4.656 19.1747,-10.497 22.4446,-13.845 l 1.9922,-6.029 c 1.0996,0.181 2.1976,0.369 3.2949,0.564 l -11.8852,35.972 c 0.7989,3.089 2.3824,7.317 5.5215,12.234 5.8633,9.183 10.4774,20.008 3.5203,19.579 -6.0375,-0.372 -10.8929,-12.881 -11.1996,-25.282 l -4.1098,12.441 c -0.6148,4.066 -1.5035,9.867 -0.8136,16.328" /><path
       inkscape:connector-curvature="0"
       id="path32"
       style="fill:#3d89d1;fill-opacity:1;fill-rule:nonzero;stroke:none;stroke-width:0.1"
       d="m 379.685,124.431 c 0.156,-0.849 0.337,-1.774 0.549,-2.758 v -0.003 c 2.22,-10.321 7.67,-27.218 19.933,-30.5399 0,0 -6.675,34.8039 17.115,43.8679 23.79,9.064 21.159,17.695 19.8,33.059 -1.36,15.363 -6.617,18.293 9.89,32.683 16.506,14.391 13.349,35.825 13.349,35.825 0,0 -15.621,-24.473 -32.306,-25.041 -16.686,-0.568 -19.608,-14.812 -18.897,-25.405 0.711,-10.592 -13.459,-11.79 -21.127,-17.933 -7.667,-6.145 -9.111,-38.409 -9.111,-38.409 0,0 0.211,-2.108 0.805,-5.346" /><path
       inkscape:connector-curvature="0"
       id="path34"
       style="fill:#385db4;fill-opacity:1;fill-rule:nonzero;stroke:none;stroke-width:0.1"
       d="m 379.685,124.431 c 0.156,-0.849 0.337,-1.774 0.549,-2.758 1.71,5.179 4.118,9.528 6.369,12.867 5.337,7.906 12.852,14.401 19.612,16.95 10.762,4.056 16.017,14.612 17.036,34.228 0.59,11.386 12.502,18.113 12.625,18.178 0.348,0.193 0.475,0.633 0.281,0.981 -0.193,0.35 -0.633,0.477 -0.98,0.284 -0.521,-0.287 -12.738,-7.171 -13.37,-19.367 -0.984,-18.964 -5.95,-29.128 -16.101,-32.954 -7.132,-2.688 -14.722,-9.227 -20.301,-17.491 -1.971,-2.921 -4.058,-6.599 -5.72,-10.918" /><path
       inkscape:connector-curvature="0"
       id="path36"
       style="fill:#385db4;fill-opacity:1;fill-rule:nonzero;stroke:none;stroke-width:0.1"
       d="m 116.358,91.3191 h 16.717 c -9.033,1.493 -31.428,11.1079 -33.425,30.3869 -2.5293,24.419 -11.2246,24.113 -25.8762,26.667 -14.6515,2.554 -18.6879,-1.615 -27.9906,17.342 -9.3027,18.958 -30.0586,21.347 -30.0586,21.347 0,0 18.9172,-20.641 15.2969,-36.328 -3.6207,-15.686 8.9242,-21.951 18.9695,-23.922 10.0461,-1.971 7.6379,-15.472 11.4555,-24.143 1.7422,-3.9569 8.8723,-8.0588 16.1109,-11.3499 h 38.8006" /><path
       inkscape:connector-curvature="0"
       id="path38"
       style="fill:#373d9c;fill-opacity:1;fill-rule:nonzero;stroke:none;stroke-width:0.1"
       d="m 80.1484,115.356 c 0.7301,-7.312 4.9352,-16.0091 11.2485,-23.2619 0.2219,-0.255 0.4527,-0.514 0.6886,-0.775 h 1.9024 c -0.5445,0.5739 -1.0602,1.1391 -1.5399,1.6899 -6.0394,6.9379 -10.2214,15.554 -10.9152,22.486 -1.1019,11.035 -9.6301,18.557 -27.6535,24.384 -10.4613,3.381 -13.7656,16.152 -13.7957,16.283 -0.0934,0.372 -0.4719,0.6 -0.8438,0.506 -0.3746,-0.093 -0.6027,-0.471 -0.5093,-0.843 0.1383,-0.555 3.5136,-13.649 14.7191,-17.272 17.4238,-5.632 25.6582,-12.786 26.6988,-23.197" /><path
       inkscape:connector-curvature="0"
       id="path40"
       style="fill:#3d89d1;fill-opacity:1;fill-rule:nonzero;stroke:none;stroke-width:0.1"
       d="m 125.374,136.638 c -0.354,-1.186 -0.755,-2.478 -1.208,-3.85 l -10e-4,-0.003 c -4.753,-14.384 -14.503,-38.61 -32.5087,-41.4659 0,0 14.2507,49.5859 -18.2946,66.1739 -32.5449,16.589 -27.4648,28.497 -23.1629,50.204 4.3012,21.707 12.2508,25.078 -9.0851,48.146 -21.336,23.067 -13.5371,53.16 -13.5371,53.16 0,0 18.5234,-37.315 42.2394,-40.69 23.7153,-3.375 25.6942,-24.145 23.0516,-39.147 -2.643,-15.001 17.3884,-18.888 27.3824,-28.832 9.993,-9.943 7.094,-56.192 7.094,-56.192 0,0 -0.626,-2.976 -1.97,-7.504" /><path
       inkscape:connector-curvature="0"
       id="path42"
       style="fill:#385db4;fill-opacity:1;fill-rule:nonzero;stroke:none;stroke-width:0.1"
       d="m 125.374,136.638 c -0.354,-1.186 -0.755,-2.478 -1.208,-3.85 -1.645,7.651 -4.409,14.227 -7.109,19.335 -6.397,12.1 -16.12,22.521 -25.3711,27.196 -14.7293,7.44 -20.6039,23.306 -19.0414,51.448 0.9086,16.334 -15.0511,27.76 -15.216,27.872 -0.4668,0.329 -0.5805,0.976 -0.2512,1.443 0.3293,0.47 0.977,0.584 1.4434,0.254 0.6973,-0.489 17.0672,-12.187 16.0949,-29.684 -1.5121,-27.204 4.0102,-42.466 17.9039,-49.486 9.7615,-4.93 19.5825,-15.425 26.2715,-28.073 2.363,-4.47 4.776,-10.037 6.483,-16.455" /><path
       inkscape:connector-curvature="0"
       id="path44"
       style="fill:#2f335d;fill-opacity:1;fill-rule:nonzero;stroke:none;stroke-width:0.1"
       d="m 138.283,102.979 c 0.055,-3.7688 0.123,-7.6919 0.205,-11.6599 h 36.36 c 0.069,4.343 0.123,8.5059 0.162,12.4099 0.11,10.583 0.122,19.293 0.114,24.707 -0.004,3.839 -0.02,6.016 -0.02,6.016 l -37.077,0.394 c 0,0 0,-3.203 0.029,-8.443 0.024,-5.822 0.089,-14.159 0.227,-23.424" /><path
       inkscape:connector-curvature="0"
       id="path46"
       style="fill:#1c1a2c;fill-opacity:1;fill-rule:nonzero;stroke:none;stroke-width:0.1"
       d="m 138.056,126.403 c 0.024,-5.822 0.089,-14.159 0.227,-23.424 11.422,-0.872 23.943,-0.879 36.727,0.75 0.11,10.583 0.122,19.293 0.114,24.707 l -37.068,-2.033" /><path
       inkscape:connector-curvature="0"
       id="path48"
       style="fill:#2f335d;fill-opacity:1;fill-rule:nonzero;stroke:none;stroke-width:0.1"
       d="m 92.4605,111.34 c 0.0411,-5.926 0.1114,-12.7162 0.2286,-20.0209 h 36.3629 c 0.09,4.2778 0.162,8.5028 0.221,12.5399 0.126,8.665 0.19,16.466 0.223,22.075 0.028,5.518 0.028,8.912 0.028,8.912 l -37.0924,-0.394 c 0,0 -0.0285,-3.932 -0.0199,-10.55 0,-3.5 0.016,-7.745 0.0488,-12.562" /><path
       inkscape:connector-curvature="0"
       id="path50"
       style="fill:#1c1a2c;fill-opacity:1;fill-rule:nonzero;stroke:none;stroke-width:0.1"
       d="m 92.4117,123.902 c 0,-3.5 0.016,-7.745 0.0488,-12.562 7.3833,-2.177 20.6025,-5.563 36.8125,-7.481 0.126,8.665 0.19,16.466 0.223,22.075 l -37.0843,-2.032" /><path
       inkscape:connector-curvature="0"
       id="path52"
       style="fill:#2f335d;fill-opacity:1;fill-rule:nonzero;stroke:none;stroke-width:0.1"
       d="m 153.366,329.919 c 0,0 5.843,5.627 5.823,11.185 -0.02,5.557 -3.797,3.915 -5.823,9.093 -2.027,5.178 -8.05,8.336 -11.353,7.704 -3.304,-0.631 -10.277,12.251 -19.736,9.977 -9.459,-2.273 -8.635,-14.398 -12.71,-16.166 -4.074,-1.768 -2.938,-8.967 -0.79,-10.608 2.147,-1.643 3.055,-8.241 4.264,-8.092 1.208,0.149 40.325,-3.093 40.325,-3.093" /><path
       inkscape:connector-curvature="0"
       id="path54"
       style="fill:#f25349;fill-opacity:1;fill-rule:nonzero;stroke:none;stroke-width:0.1"
       d="m 114.041,330.052 c 0,0 -3.673,4.898 -6.405,0.848 -2.731,-4.05 1.131,-16.012 7.818,-13.092 l -1.413,12.244" /><path
       inkscape:connector-curvature="0"
       id="path56"
       style="fill:#e43342;fill-opacity:1;fill-rule:nonzero;stroke:none;stroke-width:0.1"
       d="m 113.994,321.504 c -0.247,0 -0.474,0.163 -0.544,0.413 -1.036,3.693 -4.863,5.19 -4.901,5.205 -0.291,0.111 -0.438,0.438 -0.327,0.729 0.11,0.291 0.436,0.438 0.727,0.328 0.179,-0.067 4.396,-1.704 5.59,-5.957 0.084,-0.3 -0.092,-0.612 -0.392,-0.697 -0.051,-0.014 -0.103,-0.021 -0.153,-0.021" /><path
       inkscape:connector-curvature="0"
       id="path58"
       style="fill:#e43342;fill-opacity:1;fill-rule:nonzero;stroke:none;stroke-width:0.1"
       d="m 110.132,323.365 c -0.105,0 -0.211,0.029 -0.306,0.09 -0.262,0.169 -0.338,0.519 -0.169,0.781 0.029,0.043 0.705,1.076 2.121,1.71 0.284,0.128 0.619,0 0.747,-0.285 0.127,-0.285 0,-0.619 -0.285,-0.747 -1.095,-0.49 -1.628,-1.283 -1.633,-1.29 -0.107,-0.168 -0.29,-0.259 -0.475,-0.259" /><path
       inkscape:connector-curvature="0"
       id="path60"
       style="fill:#f25349;fill-opacity:1;fill-rule:nonzero;stroke:none;stroke-width:0.1"
       d="m 151.899,330.052 c 0,0 3.673,4.898 6.405,0.848 2.731,-4.05 -1.131,-16.012 -7.818,-13.092 l 1.413,12.244" /><path
       inkscape:connector-curvature="0"
       id="path62"
       style="fill:#e43342;fill-opacity:1;fill-rule:nonzero;stroke:none;stroke-width:0.1"
       d="m 151.946,321.504 c 0.247,0 0.474,0.163 0.544,0.413 1.036,3.693 4.863,5.19 4.901,5.205 0.291,0.111 0.438,0.438 0.327,0.729 -0.11,0.291 -0.436,0.438 -0.727,0.328 -0.179,-0.067 -4.396,-1.704 -5.59,-5.957 -0.084,-0.3 0.092,-0.612 0.392,-0.697 0.051,-0.014 0.103,-0.021 0.153,-0.021" /><path
       inkscape:connector-curvature="0"
       id="path64"
       style="fill:#e43342;fill-opacity:1;fill-rule:nonzero;stroke:none;stroke-width:0.1"
       d="m 155.808,323.365 c 0.105,0 0.211,0.029 0.306,0.09 0.262,0.169 0.338,0.519 0.169,0.781 -0.029,0.043 -0.705,1.076 -2.121,1.71 -0.284,0.128 -0.62,0 -0.747,-0.285 -0.127,-0.285 0,-0.619 0.285,-0.747 1.095,-0.49 1.628,-1.283 1.633,-1.29 0.107,-0.168 0.29,-0.259 0.475,-0.259" /><path
       inkscape:connector-curvature="0"
       id="path66"
       style="fill:#f6876f;fill-opacity:1;fill-rule:nonzero;stroke:none;stroke-width:0.1"
       d="m 142.013,307.661 v -11.896 c 0,0 -3.548,-6.058 -8.346,-6.471 -4.793,-0.418 -9.052,5.216 -9.052,5.216 v 12.315 l 17.398,0.836" /><path
       inkscape:connector-curvature="0"
       id="path68"
       style="fill:#f25349;fill-opacity:1;fill-rule:nonzero;stroke:none;stroke-width:0.1"
       d="m 142.013,307.661 v -5.278 c -3.22,-3.573 -8.937,-4.465 -17.398,-3.216 v 7.658 l 17.398,0.836" /><path
       inkscape:connector-curvature="0"
       id="path70"
       style="fill:#f6876f;fill-opacity:1;fill-rule:nonzero;stroke:none;stroke-width:0.1"
       d="m 154.555,338.213 c -0.221,-4.623 -0.661,-10.404 -1.543,-15.027 -0.22,-1.153 -0.469,-2.238 -0.746,-3.21 -2.504,-8.766 -8.766,-23.799 -26.296,-17.537 -7.743,2.764 -11.332,11.388 -12.931,20.159 -1.085,5.957 -1.249,11.976 -1.17,16.276 0.085,4.392 2.481,8.404 6.302,10.568 10.348,5.867 21.266,3.68 28.455,0.916 4.99,-1.916 8.183,-6.816 7.929,-12.145" /><path
       inkscape:connector-curvature="0"
       id="path72"
       style="fill:#2f335d;fill-opacity:1;fill-rule:nonzero;stroke:none;stroke-width:0.1"
       d="m 132.606,316.158 c 11.746,2.016 9.647,-4.861 9.571,-5.107 v -0.004 c -0.004,-0.004 -0.004,-0.004 -0.004,-0.004 -0.795,-0.758 -1.606,-1.395 -2.413,-1.83 -4.551,-2.459 -5.043,-2.088 -6.839,-2.167 -1.826,-0.088 -4.346,0.454 -6.903,1.883 -0.796,0.447 -1.986,1.311 -3.289,2.501 0,0 -1.846,6.308 9.877,4.728 z m -19.565,6.442 c 0,0 1.701,-10.136 3.307,-13.83 1.61,-3.695 5.999,-4.391 7.648,-7.514 2.35,-4.452 5.934,-7.98 11.829,-5.83 4.905,1.789 4.683,4.297 7.431,6.237 4.707,3.324 7.041,6.982 7.231,10.013 0.189,3.031 2.527,11.511 2.527,11.511 l -2.527,0.178 c 0,0 -1.44,-2.982 -3.558,-6.267 -2.126,4.668 -12.367,1.273 -12.367,1.273 l -1.956,-0.633 -2.008,0.633 c 0,0 -10.362,3.251 -12.409,-1.644 -1.253,1.917 -2.273,4.073 -2.735,6.357 l -2.413,-0.484" /><path
       inkscape:connector-curvature="0"
       id="path74"
       style="fill:#2f335d;fill-opacity:1;fill-rule:nonzero;stroke:none;stroke-width:0.1"
       d="m 125.546,328.5 c 0,-1.271 -0.654,-2.3 -1.461,-2.3 -0.808,0 -1.462,1.029 -1.462,2.3 0,1.27 0.654,2.299 1.462,2.299 0.807,0 1.461,-1.029 1.461,-2.299" /><path
       inkscape:connector-curvature="0"
       id="path76"
       style="fill:#2f335d;fill-opacity:1;fill-rule:nonzero;stroke:none;stroke-width:0.1"
       d="m 142.925,328.5 c 0,-1.271 -0.654,-2.3 -1.462,-2.3 -0.807,0 -1.462,1.029 -1.462,2.3 0,1.27 0.655,2.299 1.462,2.299 0.808,0 1.462,-1.029 1.462,-2.299" /><path
       inkscape:connector-curvature="0"
       id="path78"
       style="fill:#2f335d;fill-opacity:1;fill-rule:nonzero;stroke:none;stroke-width:0.1"
       d="m 147.217,336.071 c 0,0 -6.04,2.387 -10.691,0.378 l 0.465,-2.586 c 0,0 6.826,0.577 10.266,-0.817 0.307,0.996 0.353,2.002 -0.04,3.025" /><path
       inkscape:connector-curvature="0"
       id="path80"
       style="fill:#2f335d;fill-opacity:1;fill-rule:nonzero;stroke:none;stroke-width:0.1"
       d="m 118.496,336.06 c 0,0 6.085,2.404 10.771,0.38 l -0.469,-2.606 c 0,0 -6.877,0.582 -10.342,-0.822 -0.31,1.003 -0.355,2.017 0.04,3.048" /><path
       inkscape:connector-curvature="0"
       id="path82"
       style="fill:#f25349;fill-opacity:1;fill-rule:nonzero;stroke:none;stroke-width:0.1"
       d="m 133.167,318.863 c 0.953,0 1.898,0.371 2.045,0.431 0.288,0.118 0.427,0.448 0.309,0.737 -0.117,0.289 -0.448,0.427 -0.736,0.309 -0.511,-0.206 -1.736,-0.531 -2.267,-0.214 -0.102,0.062 -0.243,0.184 -0.278,0.527 -0.204,1.973 0.336,8.588 0.342,8.655 0.025,0.311 -0.206,0.584 -0.517,0.609 -0.313,0.027 -0.584,-0.206 -0.61,-0.517 -0.022,-0.275 -0.554,-6.787 -0.339,-8.864 0.081,-0.782 0.491,-1.182 0.822,-1.38 0.361,-0.216 0.796,-0.293 1.229,-0.293" /><path
       inkscape:connector-curvature="0"
       id="path84"
       style="fill:#ffffff;fill-opacity:1;fill-rule:nonzero;stroke:none;stroke-width:0.1"
       d="m 125.961,315.027 c 0.43,-2.158 1.855,-6.13 6.66,-6.13 4.816,0 6.166,3.629 6.63,6.13 h -13.29" /><path
       inkscape:connector-curvature="0"
       id="path86"
       style="fill:#2f335d;fill-opacity:1;fill-rule:nonzero;stroke:none;stroke-width:0.1"
       d="m 154.555,338.213 c -0.221,-4.623 -0.661,-10.404 -1.543,-15.027 l -2.526,0.179 c 0,0 0.612,3.903 0.894,6.446 0.283,2.543 0.763,7.297 -1.407,7.89 -2.165,0.588 -0.894,6.011 -3.907,8.362 -3.012,2.356 -9.703,4.431 -14.145,1.695 -4.442,-2.729 -9.495,-1.22 -11.541,-1.695 -2.051,-0.469 -4.832,-3.295 -4.08,-5.934 0.757,-2.633 -1.503,-4.239 -2.051,-6.968 -0.549,-2.73 1.203,-10.077 1.203,-10.077 l -2.413,-0.486 c -1.085,5.957 -1.249,11.976 -1.17,16.276 0.085,4.392 2.481,8.404 6.302,10.568 10.348,5.867 21.266,3.68 28.455,0.916 4.99,-1.916 8.183,-6.816 7.929,-12.145" /><path
       inkscape:connector-curvature="0"
       id="path88"
       style="fill:#385db4;fill-opacity:1;fill-rule:nonzero;stroke:none;stroke-width:0.1"
       d="m 182.787,116.576 c -11.435,-2.895 -22.87,-4.768 -34.312,-5.631 -0.519,-0.037 -1.034,-0.075 -1.553,-0.11 -1.573,-0.106 -3.146,-0.194 -4.718,-0.263 -7.783,-0.335 -15.569,-0.204 -23.354,0.397 -1.57,0.12 -3.138,0.259 -4.708,0.421 -0.502,0.047 -1.003,0.1 -1.507,0.158 -9.296,1.009 -18.5881,2.686 -27.8909,5.028 -0.0933,8.57 0.0125,35.661 0.5391,65.041 0.0606,3.531 0.1289,7.095 0.207,10.664 0.8243,38.721 2.4145,78.026 5.275,81.963 2.7422,3.768 11.0068,8.557 18.9078,12.877 0.472,0.257 0.943,0.514 1.411,0.769 1.777,0.964 3.514,1.9 5.147,2.787 3.501,1.906 6.52,3.599 8.386,4.907 v -1.076 c 0,0 4.254,-5.631 9.048,-5.215 4.37,0.376 7.697,5.424 8.262,6.329 2.061,-1.452 5.764,-3.453 10.056,-5.721 1.195,-0.633 2.43,-1.281 3.69,-1.948 0.464,-0.245 0.93,-0.492 1.399,-0.742 8.738,-4.634 18.159,-9.859 20.987,-13.743 0.212,-0.287 0.413,-0.769 0.605,-1.429 1.673,-5.666 2.711,-24.469 3.344,-47.237 0.003,-0.081 0.005,-0.164 0.008,-0.247 0.027,-0.92 0.05,-1.848 0.073,-2.781 0.005,-0.121 0.008,-0.244 0.01,-0.368 0.207,-7.986 0.363,-16.394 0.484,-24.843 0.01,-0.67 0.022,-1.34 0.03,-2.011 0.003,-0.338 0.008,-0.67 0.01,-1.008 0.028,-1.664 0.045,-3.327 0.061,-4.983 0.017,-1.222 0.032,-2.442 0.043,-3.665 0.315,-30.537 0.186,-59.342 0.06,-68.32" /><path
       inkscape:connector-curvature="0"
       id="path90"
       style="fill:#3948a5;fill-opacity:1;fill-rule:nonzero;stroke:none;stroke-width:0.1"
       d="m 182.089,221.774 c -2.752,4.495 -5.706,9.081 -8.489,13.139 -0.007,0.011 -0.015,0.021 -0.02,0.03 -1.169,1.704 -2.306,3.313 -3.387,4.782 -0.018,0.028 -0.036,0.052 -0.056,0.076 -0.338,0.461 -0.673,0.909 -1,1.345 -0.053,0.076 -0.094,0.154 -0.119,0.237 l -0.002,0.003 c -0.088,0.295 0.01,0.622 0.269,0.819 0.336,0.254 0.812,0.189 1.064,-0.146 3.342,-4.428 7.617,-10.795 11.659,-17.257 0.003,-0.081 0.005,-0.164 0.008,-0.247 0.027,-0.92 0.05,-1.848 0.073,-2.781" /><path
       inkscape:connector-curvature="0"
       id="path92"
       style="fill:#385db4;fill-opacity:1;fill-rule:nonzero;stroke:none;stroke-width:0.1"
       d="m 178.176,274.093 c 0,0 17.245,-31.595 27.757,-47.607 0,0 5.978,5.493 13.753,12.839 8.43,7.966 19.959,21.279 19.959,21.279 l 6.38,-7.566 c 0,0 -25.904,-46.615 -37.523,-52.474 -11.619,-5.858 -33.029,35.608 -33.029,35.608 l 2.703,37.921" /><path
       inkscape:connector-curvature="0"
       id="path94"
       style="fill:#3948a5;fill-opacity:1;fill-rule:nonzero;stroke:none;stroke-width:0.1"
       d="m 105.16,149.573 c -0.01,0 -0.019,0 -0.028,0 -0.431,0.016 -0.767,0.377 -0.752,0.808 0.905,25.515 -12.3265,33.781 -12.4597,33.861 -0.3683,0.223 -0.4887,0.701 -0.2676,1.07 0.2207,0.369 0.6985,0.49 1.068,0.27 0.1469,-0.088 3.6445,-2.213 7.032,-7.657 3.0923,-4.97 6.6753,-13.793 6.1853,-27.6 -0.014,-0.421 -0.36,-0.752 -0.778,-0.752" /><path
       inkscape:connector-curvature="0"
       id="path96"
       style="fill:#3948a5;fill-opacity:1;fill-rule:nonzero;stroke:none;stroke-width:0.1"
       d="m 161.604,173.611 c -0.404,0 -0.746,0.31 -0.777,0.719 -0.419,5.373 1.351,9.292 3.591,14.254 0.656,1.452 1.333,2.952 2.027,4.636 4.349,10.547 2.164,22.606 2.141,22.726 -0.079,0.424 0.2,0.831 0.623,0.91 0.424,0.081 0.831,-0.199 0.911,-0.623 0.095,-0.51 2.291,-12.637 -2.232,-23.608 -0.704,-1.707 -1.387,-3.22 -2.048,-4.683 -2.233,-4.944 -3.846,-8.516 -3.458,-13.491 0.034,-0.43 -0.288,-0.805 -0.717,-0.838 -0.021,-0.002 -0.041,-0.002 -0.061,-0.002" /><path
       inkscape:connector-curvature="0"
       id="path98"
       style="fill:#ffffff;fill-opacity:1;fill-rule:nonzero;stroke:none;stroke-width:0.1"
       d="m 116.23,290.678 c 0.334,-2.512 0.823,-5.771 1.357,-9.473 0.163,-1.099 0.326,-2.239 0.493,-3.41 0.542,-3.823 1.102,-7.983 1.58,-12.189 0.129,-1.129 0.25,-2.262 0.363,-3.391 0.421,-4.164 0.739,-8.301 0.853,-12.148 0.038,-1.163 0.053,-2.299 0.045,-3.402 -0.007,-2.936 -0.17,-5.634 -0.526,-7.941 -0.228,-1.459 -0.429,-2.884 -0.606,-4.279 -0.148,-1.155 -0.281,-2.292 -0.398,-3.409 -0.455,-4.339 -0.683,-8.378 -0.746,-12.185 -0.02,-1.157 -0.023,-2.289 -0.012,-3.399 0.034,-4.323 0.28,-8.351 0.637,-12.185 0.105,-1.149 0.223,-2.278 0.344,-3.392 0.466,-4.19 1.034,-8.18 1.569,-12.124 0.155,-1.13 0.307,-2.255 0.455,-3.38 0.231,-1.804 0.45,-3.607 0.64,-5.422 0.201,-1.925 0.329,-4.176 0.39,-6.673 0.03,-1.09 0.045,-2.231 0.049,-3.41 0.015,-3.731 -0.079,-7.865 -0.254,-12.188 -0.045,-1.13 -0.094,-2.274 -0.151,-3.43 -0.193,-4.016 -0.447,-8.145 -0.731,-12.223 -0.083,-1.148 -0.167,-2.289 -0.254,-3.424 -0.315,-4.245 -0.663,-8.378 -1.015,-12.224 -0.107,-1.167 -0.213,-2.308 -0.319,-3.414 -0.406,-4.233 -0.8,-7.994 -1.144,-10.995 7.786,-0.599 15.572,-0.732 23.355,-0.395 0.182,3.195 0.678,8.348 1.167,14.413 0.091,1.111 0.178,2.255 0.265,3.422 0.292,3.858 0.557,7.98 0.731,12.14 0.05,1.14 0.091,2.285 0.122,3.426 0.117,4.152 0.121,8.278 -0.057,12.146 -0.053,1.175 -0.121,2.323 -0.212,3.441 -0.091,1.144 -0.201,2.258 -0.334,3.335 -0.375,3.038 -0.519,5.956 -0.5,8.842 0.004,1.145 0.034,2.282 0.087,3.422 0.178,3.955 0.61,7.919 1.11,12.128 0.133,1.118 0.273,2.255 0.414,3.414 0.45,3.743 0.92,7.715 1.292,12.061 0.098,1.114 0.185,2.254 0.269,3.421 0.257,3.728 0.431,7.733 0.458,12.098 0.007,1.125 0.004,2.274 -0.012,3.447 -0.041,3.779 -0.2,7.821 -0.507,12.175 -0.027,0.386 -0.053,0.777 -0.083,1.17 -0.058,0.762 -0.106,1.531 -0.141,2.301 -0.201,3.971 -0.148,8.055 0.076,12.128 0.061,1.144 0.136,2.289 0.224,3.433 0.314,4.077 0.773,8.116 1.303,11.988 0.155,1.152 0.318,2.292 0.485,3.414 0.637,4.244 1.323,8.237 1.952,11.806 0.208,1.175 0.409,2.304 0.598,3.38 0.428,2.41 0.799,4.558 1.072,6.377 -4.293,2.269 -7.995,4.27 -10.056,5.721 -0.564,-0.906 -3.891,-5.953 -8.263,-6.328 -4.793,-0.416 -9.048,5.214 -9.048,5.214 v 1.076 c -1.865,-1.307 -4.885,-3.001 -8.386,-4.906" /><path
       inkscape:connector-curvature="0"
       id="path100"
       style="fill:#dcd9d7;fill-opacity:1;fill-rule:nonzero;stroke:none;stroke-width:0.1"
       d="m 117.587,281.205 c 0.163,-1.099 0.326,-2.239 0.493,-3.41 4.3,-0.098 9.351,0.546 15.436,1.952 6.517,1.5 12.265,1.238 16.797,0.397 0.208,1.175 0.409,2.304 0.598,3.38 -4.911,0.906 -11.105,1.167 -18.161,-0.459 -6.005,-1.382 -11.006,-2.019 -15.163,-1.86" /><path
       inkscape:connector-curvature="0"
       id="path102"
       style="fill:#dcd9d7;fill-opacity:1;fill-rule:nonzero;stroke:none;stroke-width:0.1"
       d="m 119.66,265.606 c 0.129,-1.129 0.25,-2.262 0.363,-3.391 3.861,0.102 8.302,0.746 13.493,1.948 5.392,1.242 10.264,1.273 14.36,0.761 0.155,1.152 0.318,2.292 0.485,3.414 -4.441,0.549 -9.726,0.504 -15.611,-0.853 -5.039,-1.163 -9.374,-1.799 -13.09,-1.879" /><path
       inkscape:connector-curvature="0"
       id="path104"
       style="fill:#dcd9d7;fill-opacity:1;fill-rule:nonzero;stroke:none;stroke-width:0.1"
       d="m 120.876,250.067 c 0.038,-1.163 0.053,-2.299 0.045,-3.402 3.649,0.171 7.802,0.807 12.595,1.913 4.736,1.092 9.07,1.247 12.833,0.925 0.061,1.144 0.136,2.289 0.224,3.433 -4.047,0.333 -8.711,0.144 -13.823,-1.035 -4.497,-1.038 -8.434,-1.655 -11.874,-1.834" /><path
       inkscape:connector-curvature="0"
       id="path106"
       style="fill:#dcd9d7;fill-opacity:1;fill-rule:nonzero;stroke:none;stroke-width:0.1"
       d="m 119.391,231.036 c 4.008,0.045 8.646,0.696 14.125,1.958 4.797,1.107 9.184,1.251 12.981,0.91 -0.027,0.386 -0.053,0.777 -0.083,1.17 -0.058,0.762 -0.106,1.531 -0.141,2.301 -3.978,0.299 -8.536,0.094 -13.523,-1.058 -4.982,-1.151 -9.271,-1.781 -12.961,-1.872 -0.148,-1.155 -0.281,-2.292 -0.398,-3.409" /><path
       inkscape:connector-curvature="0"
       id="path108"
       style="fill:#dcd9d7;fill-opacity:1;fill-rule:nonzero;stroke:none;stroke-width:0.1"
       d="m 118.633,215.452 c 4.179,-0.034 9.055,0.613 14.883,1.958 5.028,1.16 9.593,1.27 13.5,0.872 0.007,1.125 0.004,2.274 -0.012,3.447 -4.145,0.383 -8.957,0.224 -14.254,-0.996 -5.505,-1.269 -10.166,-1.909 -14.105,-1.882 -0.02,-1.157 -0.023,-2.289 -0.012,-3.399" /><path
       inkscape:connector-curvature="0"
       id="path110"
       style="fill:#dcd9d7;fill-opacity:1;fill-rule:nonzero;stroke:none;stroke-width:0.1"
       d="m 119.27,203.267 c 0.105,-1.149 0.223,-2.278 0.344,-3.392 3.956,0.064 8.525,0.713 13.902,1.951 4.717,1.088 9.033,1.255 12.773,0.937 0.098,1.114 0.185,2.254 0.269,3.421 -4.047,0.334 -8.704,0.144 -13.808,-1.035 -5.213,-1.201 -9.676,-1.841 -13.48,-1.882" /><path
       inkscape:connector-curvature="0"
       id="path112"
       style="fill:#dcd9d7;fill-opacity:1;fill-rule:nonzero;stroke:none;stroke-width:0.1"
       d="m 121.183,187.751 c 0.155,-1.13 0.307,-2.255 0.455,-3.38 3.474,0.216 7.392,0.837 11.878,1.871 4.016,0.929 7.741,1.183 11.067,1.046 0.133,1.118 0.273,2.255 0.414,3.414 -3.668,0.167 -7.787,-0.106 -12.247,-1.137 -4.368,-1.003 -8.203,-1.618 -11.567,-1.814" /><path
       inkscape:connector-curvature="0"
       id="path114"
       style="fill:#dcd9d7;fill-opacity:1;fill-rule:nonzero;stroke:none;stroke-width:0.1"
       d="m 122.668,172.276 c 0.03,-1.09 0.045,-2.231 0.049,-3.41 3.202,0.27 6.775,0.864 10.799,1.796 3.543,0.816 6.858,1.11 9.87,1.076 0.004,1.145 0.034,2.282 0.087,3.422 -3.27,0.034 -6.869,-0.288 -10.723,-1.179 -3.735,-0.86 -7.085,-1.431 -10.082,-1.705" /><path
       inkscape:connector-curvature="0"
       id="path116"
       style="fill:#dcd9d7;fill-opacity:1;fill-rule:nonzero;stroke:none;stroke-width:0.1"
       d="m 122.312,153.248 c 3.304,0.254 7.006,0.864 11.204,1.83 3.952,0.91 7.623,1.171 10.916,1.042 -0.053,1.175 -0.121,2.323 -0.212,3.441 -3.467,0.098 -7.321,-0.205 -11.47,-1.16 -3.823,-0.882 -7.236,-1.463 -10.287,-1.723 -0.045,-1.13 -0.094,-2.274 -0.151,-3.43" /><path
       inkscape:connector-curvature="0"
       id="path118"
       style="fill:#dcd9d7;fill-opacity:1;fill-rule:nonzero;stroke:none;stroke-width:0.1"
       d="m 121.327,137.601 c 3.55,0.2 7.57,0.829 12.189,1.893 3.929,0.906 7.578,1.171 10.851,1.054 0.05,1.14 0.091,2.285 0.122,3.426 -3.535,0.121 -7.48,-0.175 -11.739,-1.157 -4.194,-0.969 -7.899,-1.572 -11.169,-1.792 -0.083,-1.148 -0.167,-2.289 -0.254,-3.424" /><path
       inkscape:connector-curvature="0"
       id="path120"
       style="fill:#dcd9d7;fill-opacity:1;fill-rule:nonzero;stroke:none;stroke-width:0.1"
       d="m 119.993,121.963 c 3.869,0.099 8.317,0.747 13.523,1.948 3.535,0.815 6.846,1.113 9.855,1.075 0.091,1.111 0.178,2.255 0.265,3.422 -3.315,0.049 -6.968,-0.269 -10.886,-1.175 -4.747,-1.094 -8.87,-1.719 -12.438,-1.856 -0.107,-1.167 -0.213,-2.308 -0.319,-3.414" /><path
       inkscape:connector-curvature="0"
       id="path122"
       style="fill:#3948a5;fill-opacity:1;fill-rule:nonzero;stroke:none;stroke-width:0.1"
       d="m 146.921,110.835 c 0.519,0.034 1.035,0.072 1.554,0.11 3.068,18.042 1.299,44.528 0.64,52.644 -0.682,8.427 0.629,19.263 3.595,29.721 2.304,8.123 0.891,26.958 -0.242,42.09 -0.318,4.247 -0.621,8.26 -0.799,11.557 -0.58,10.654 3.277,30.372 5.403,40.253 -0.47,0.25 -0.936,0.497 -1.398,0.743 -2.13,-9.783 -6.127,-29.948 -5.521,-41.08 0.182,-3.311 0.485,-7.331 0.804,-11.586 1.125,-15.016 2.526,-33.699 0.299,-41.561 -3.016,-10.628 -4.346,-21.658 -3.649,-30.258 0.656,-8.128 2.436,-34.78 -0.686,-52.633" /><path
       inkscape:connector-curvature="0"
       id="path124"
       style="fill:#3948a5;fill-opacity:1;fill-rule:nonzero;stroke:none;stroke-width:0.1"
       d="m 115.484,184.25 c 1.804,-11.095 1.235,-18.301 0.576,-26.641 -0.212,-2.697 -0.432,-5.482 -0.587,-8.558 -0.481,-9.655 -2.115,-29.096 -2.838,-37.504 0.504,-0.057 1.004,-0.11 1.508,-0.159 0.724,8.408 2.36,27.898 2.846,37.587 0.151,3.053 0.371,5.831 0.583,8.513 0.663,8.439 1.239,15.728 -0.595,27.004 -0.39,2.421 -0.807,4.876 -1.22,7.32 -2.042,12.091 -4.156,24.594 -3.156,30.584 0.242,1.463 0.553,3.123 0.886,4.881 1.357,7.229 3.051,16.224 2.516,24.03 -0.53,7.736 -3.701,28.686 -4.918,36.582 -0.469,-0.254 -0.939,-0.512 -1.413,-0.769 1.269,-8.257 4.304,-28.402 4.82,-35.916 0.519,-7.612 -1.152,-16.505 -2.493,-23.646 -0.334,-1.766 -0.648,-3.433 -0.895,-4.912 -1.038,-6.24 1,-18.307 3.16,-31.087 0.413,-2.441 0.826,-4.892 1.22,-7.309" /><path
       inkscape:connector-curvature="0"
       id="path126"
       style="fill:#f6876f;fill-opacity:1;fill-rule:nonzero;stroke:none;stroke-width:0.1"
       d="m 85.6598,261.377 c 0,0 -15.4368,-51.479 -19.2598,-69.825 -3.823,-18.346 -4.1187,-56.485 -4.1187,-56.485 0,0 -6.7485,-14.009 -6.9083,-20.244 -0.1703,-6.646 3.3196,-11.934 2.9215,-16.2839 -0.3984,-4.35 4.8969,-1.9879 3.4012,6.8209 -1.4961,8.811 2.7481,16.789 4.5797,16.534 1.832,-0.256 -1.5156,-9.62 0.1109,-12.994 1.6258,-3.374 3.7313,3.181 5.825,7.159 2.1735,4.128 2.0465,13.139 1.0571,19.571 -0.9891,6.432 10.6707,45.499 10.7265,56.819 l 14.7641,49.89 c 0,0 -4.8777,20.826 -13.0992,19.038" /><path
       inkscape:connector-curvature="0"
       id="path128"
       style="fill:#385db4;fill-opacity:1;fill-rule:nonzero;stroke:none;stroke-width:0.1"
       d="m 100.65,243.592 c -0.523,-3.308 -2.3527,-8.988 -4.7168,-16.133 v -0.004 c -0.2008,-0.602 -0.4059,-1.217 -0.6102,-1.842 -0.0117,-0.026 -0.0226,-0.056 -0.03,-0.087 -0.5914,-1.777 -1.209,-3.636 -1.8457,-5.562 -0.0035,-0.011 -0.0075,-0.023 -0.0114,-0.034 -2.6179,-7.95 -5.5164,-17.042 -7.9492,-26.386 -0.8375,-3.198 -1.6176,-6.43 -2.3109,-9.65 -0.8867,-4.112 -1.6367,-8.211 -2.1863,-12.224 -1.9743,-14.454 -5.7477,-32.763 -5.7477,-32.763 -5.5359,-2.273 -14.1898,0.728 -14.1898,0.728 0,0 -0.2235,26.367 1.0117,36.612 1.5265,12.667 3.4707,21.685 5.8801,32.036 6.6308,28.489 18.3007,56.364 21.5027,63.757 0.2539,0.591 0.4543,1.049 0.5945,1.367 h 2.7551 c 5.4219,-3.444 9.2669,-20.903 7.8539,-29.815" /><path
       inkscape:connector-curvature="0"
       id="path130"
       style="fill:#3d89d1;fill-opacity:1;fill-rule:nonzero;stroke:none;stroke-width:0.1"
       d="m 60.602,144.914 0.4339,-6.067 c 0,0 8.2286,-2.674 14.3961,-0.79 l 1.6309,5.411 C 71.1238,143.153 65.6371,143.3 60.602,144.914" /><path
       inkscape:connector-curvature="0"
       id="path132"
       style="fill:#3948a5;fill-opacity:1;fill-rule:nonzero;stroke:none;stroke-width:0.1"
       d="m 95.9332,227.459 v -0.004 c 0,-0.087 -0.0152,-0.174 -0.0453,-0.262 -0.1859,-0.511 -0.3758,-1.038 -0.5649,-1.58 -0.0117,-0.026 -0.0226,-0.056 -0.03,-0.087 -0.6067,-1.719 -1.2242,-3.591 -1.8457,-5.562 -0.0035,-0.011 -0.0075,-0.023 -0.0114,-0.034 -3.2242,-10.245 -6.5019,-23.135 -8.0097,-31.368 0.0152,1.655 0.0343,3.319 0.0605,4.982 -0.8375,-3.198 -1.6176,-6.43 -2.3109,-9.65 0.3105,3.019 1.1742,7.543 2.3523,12.669 2.3801,10.374 6.0324,23.223 8.9348,31.15 0.1441,0.393 0.5797,0.595 0.9734,0.451 0.3075,-0.114 0.4969,-0.398 0.4969,-0.705" /><path
       inkscape:connector-curvature="0"
       id="path134"
       style="fill:#2f335d;fill-opacity:1;fill-rule:nonzero;stroke:none;stroke-width:0.1"
       d="m 372.071,91.3191 h 36.465 c -0.12,2.5297 -0.24,4.9539 -0.357,7.243 -0.636,12.4869 -1.176,20.9889 -1.176,20.9889 l -29.655,-1.318 -2.458,-0.111 -4.363,-0.195 c 0,0 0.421,-7.603 1.076,-18.7399 0.145,-2.4633 0.302,-5.1019 0.468,-7.868" /><path
       inkscape:connector-curvature="0"
       id="path136"
       style="fill:#1c1a2c;fill-opacity:1;fill-rule:nonzero;stroke:none;stroke-width:0.1"
       d="m 374.89,118.122 -4.363,-0.195 c 0,0 0.421,-7.603 1.076,-18.7399 11.394,-0.95 23.833,-1.3359 36.576,-0.625 -0.636,12.4869 -1.176,20.9889 -1.176,20.9889 l -29.655,-1.318 -2.458,-0.111" /><path
       inkscape:connector-curvature="0"
       id="path138"
       style="fill:#1c1a2c;fill-opacity:1;fill-rule:nonzero;stroke:none;stroke-width:0.1"
       d="m 378.859,91.3191 c -0.666,11.5579 -1.213,21.4309 -1.512,26.9129 l -2.459,-0.111 c 0.298,-5.457 0.842,-15.284 1.507,-26.8019 h 2.464" /><path
       inkscape:connector-curvature="0"
       id="path140"
       style="fill:#2f335d;fill-opacity:1;fill-rule:nonzero;stroke:none;stroke-width:0.1"
       d="m 361.374,91.3191 c 0.187,3.1309 0.363,6.1008 0.524,8.8369 0.628,10.609 1.023,17.771 1.023,17.771 l -4.735,0.211 -2.455,0.111 -29.291,1.302 c 0,0 -0.322,-5.068 -0.761,-13.121 -0.234,-4.292 -0.5,-9.437 -0.771,-15.1109 h 36.466" /><path
       inkscape:connector-curvature="0"
       id="path142"
       style="fill:#1c1a2c;fill-opacity:1;fill-rule:nonzero;stroke:none;stroke-width:0.1"
       d="m 325.679,106.43 c 7.95,-1.869 20.769,-4.493 36.219,-6.274 0.628,10.61 1.023,17.771 1.023,17.771 l -4.735,0.211 -2.455,0.111 -29.291,1.302 c 0,0 -0.322,-5.068 -0.761,-13.121" /><path
       inkscape:connector-curvature="0"
       id="path144"
       style="fill:#1c1a2c;fill-opacity:1;fill-rule:nonzero;stroke:none;stroke-width:0.1"
       d="m 356.679,91.3191 c 0.665,11.5289 1.209,21.3649 1.507,26.8189 l -2.456,0.11 c -0.299,-5.478 -0.846,-15.359 -1.514,-26.9289 h 2.463" /><path
       inkscape:connector-curvature="0"
       id="path146"
       style="fill:#385db4;fill-opacity:1;fill-rule:nonzero;stroke:none;stroke-width:0.1"
       d="m 412.298,113.867 c -7.428,-2.045 -14.856,-3.587 -22.283,-4.623 -2.583,-0.362 -5.164,-0.665 -7.745,-0.902 -3.481,-0.322 -6.961,-0.539 -10.44,-0.648 -5.754,-0.176 -11.508,-0.05 -17.265,0.376 -11.127,0.814 -22.252,2.757 -33.381,5.797 -0.104,10.376 0.052,47.587 0.831,83.478 0.038,1.61 0.073,3.22 0.113,4.824 0.005,0.34 0.016,0.68 0.023,1.02 0.007,0.371 0.018,0.742 0.028,1.109 0.025,1.139 0.055,2.273 0.083,3.403 0.057,2.306 0.118,4.592 0.184,6.856 0.04,1.353 0.08,2.699 0.12,4.032 0.008,0.277 0.018,0.552 0.026,0.827 0.028,0.879 0.055,1.754 0.083,2.623 0,0 0,0 0,0.003 0.011,0.27 0.017,0.539 0.028,0.809 0.025,0.801 0.053,1.598 0.078,2.386 0.026,0.673 0.048,1.336 0.071,2.002 0.862,24.211 2.122,43.308 3.926,45.999 3.06,4.565 13.482,10.624 21.865,15.556 2.986,1.754 6.552,3.579 8.594,4.933 2.977,-2.397 5.137,-4.562 9.55,-4.414 4.938,0.169 6.154,3.138 8.037,5.684 1.15,-0.746 4.069,-3.141 5.586,-4.03 1.298,-0.766 2.704,-1.578 4.171,-2.422 2.269,-1.298 4.681,-2.677 7.069,-4.083 3.541,-2.085 7.033,-4.234 9.928,-6.289 2.892,-2.054 5.188,-4.017 6.324,-5.718 1.638,-2.46 2.7,-18.387 3.382,-39.347 0.028,-0.733 0.048,-1.476 0.076,-2.224 0.002,-0.091 0.002,-0.182 0.002,-0.276 0.029,-0.76 0.051,-1.542 0.069,-2.323 0.068,-2.359 0.13,-4.768 0.196,-7.219 0.013,-0.516 0.025,-1.038 0.033,-1.557 0.01,-0.391 0.023,-0.784 0.026,-1.17 0.022,-1.008 0.044,-2.019 0.067,-3.039 0.005,-0.204 0.008,-0.408 0.013,-0.613 0.055,-2.689 0.108,-5.416 0.156,-8.166 0.015,-0.804 0.028,-1.61 0.041,-2.417 0.622,-37.733 0.478,-79.087 0.335,-90.237" /><path
       inkscape:connector-curvature="0"
       id="path148"
       style="fill:#3948a5;fill-opacity:1;fill-rule:nonzero;stroke:none;stroke-width:0.1"
       d="m 411.963,204.104 -11.763,-11.931 -10.959,11.109 -10.956,-11.109 -10.999,11.155 -11.004,-11.155 -11.072,11.228 -11.074,-11.228 -11.957,12.125 c 0.025,1.139 0.055,2.273 0.083,3.403 0.057,2.306 0.118,4.592 0.184,6.856 l 11.69,11.855 11.074,-11.23 11.072,11.23 11.004,-11.155 10.999,11.155 10.956,-11.109 10.959,11.109 11.566,-11.725 c 0.055,-2.689 0.108,-5.416 0.156,-8.166 0.015,-0.804 0.028,-1.61 0.041,-2.417" /><path
       inkscape:connector-curvature="0"
       id="path150"
       style="fill:#3948a5;fill-opacity:1;fill-rule:nonzero;stroke:none;stroke-width:0.1"
       d="m 391.659,142.607 c -10e-4,0 -0.002,0 -0.004,0 -15.749,0.07 -29.192,7.237 -37.696,13.237 -9.197,6.489 -14.772,13.064 -14.826,13.13 -0.27,0.32 -0.229,0.798 0.092,1.068 0.32,0.269 0.798,0.228 1.067,-0.093 0.055,-0.063 5.527,-6.513 14.575,-12.891 8.319,-5.864 21.455,-12.868 36.795,-12.935 0.419,-10e-4 0.757,-0.343 0.755,-0.761 -0.002,-0.417 -0.341,-0.755 -0.758,-0.755" /><path
       inkscape:connector-curvature="0"
       id="path152"
       style="fill:#3948a5;fill-opacity:1;fill-rule:nonzero;stroke:none;stroke-width:0.1"
       d="m 381.835,151.923 c -13.41,2.636 -25.28,12.906 -25.819,13.378 -0.315,0.275 -0.347,0.754 -0.072,1.069 0.276,0.315 0.754,0.346 1.07,0.071 0.139,-0.121 14.108,-12.2 28.342,-13.5 0.424,-0.034 0.725,-0.406 0.687,-0.823 -0.038,-0.416 -0.407,-0.723 -0.823,-0.685 -1.136,0.103 -2.266,0.27 -3.385,0.49" /><path
       inkscape:connector-curvature="0"
       id="path154"
       style="fill:#3948a5;fill-opacity:1;fill-rule:nonzero;stroke:none;stroke-width:0.1"
       d="m 354.978,268.472 c -0.357,0 -0.674,0.254 -0.744,0.617 -0.078,0.411 0.193,0.807 0.604,0.886 19.201,3.643 24.989,15.996 25.045,16.12 0.173,0.382 0.622,0.551 1.003,0.379 0.382,-0.173 0.55,-0.621 0.378,-1.003 -0.243,-0.537 -6.175,-13.197 -26.144,-16.985 -0.048,-0.009 -0.096,-0.014 -0.142,-0.014" /><path
       inkscape:connector-curvature="0"
       id="path156"
       style="fill:#3948a5;fill-opacity:1;fill-rule:nonzero;stroke:none;stroke-width:0.1"
       d="m 331.55,235.221 v -0.005 c -0.018,-0.083 -0.056,-0.166 -0.104,-0.242 -0.287,-0.461 -0.588,-0.938 -0.887,-1.424 -0.015,-0.028 -0.033,-0.051 -0.045,-0.081 -0.96,-1.552 -1.961,-3.248 -2.993,-5.04 -0.001,-0.013 -0.006,-0.021 -0.017,-0.031 -1.61,-2.82 -3.278,-5.877 -4.912,-8.982 0.028,0.879 0.055,1.754 0.083,2.623 0,0 0,0 0,0.003 0.011,0.27 0.017,0.539 0.028,0.809 2.634,4.889 5.26,9.463 7.463,12.932 0.227,0.356 0.692,0.456 1.048,0.235 0.275,-0.179 0.401,-0.497 0.336,-0.797" /><path
       inkscape:connector-curvature="0"
       id="path158"
       style="fill:#f6876f;fill-opacity:1;fill-rule:nonzero;stroke:none;stroke-width:0.1"
       d="m 428.309,263.307 c 0,0 24.554,7.892 31.821,24.005 2.101,4.667 -15.213,52.046 -15.213,52.046 l -8.356,-0.405 c 0,0 2.38,-16.438 3.825,-25.746 1.186,-7.654 3.104,-16.798 3.752,-19.81 0.14,-0.653 0.219,-1.016 0.219,-1.016 -0.41,-0.07 -0.821,-0.15 -1.24,-0.233 -11.472,-2.331 -26.119,-9.803 -26.119,-9.803 l 11.311,-19.038" /><path
       inkscape:connector-curvature="0"
       id="path160"
       style="fill:#f25349;fill-opacity:1;fill-rule:nonzero;stroke:none;stroke-width:0.1"
       d="m 450.525,287.84 c 0.349,-0.254 0.848,-0.178 1.099,0.173 0.264,0.357 0.184,0.849 -0.173,1.098 -1.786,1.298 -4.482,2.822 -7.313,4.286 0.14,-0.653 0.219,-1.016 0.219,-1.016 -0.41,-0.07 -0.821,-0.15 -1.24,-0.233 2.883,-1.481 5.642,-3.023 7.408,-4.308" /><path
       inkscape:connector-curvature="0"
       id="path162"
       style="fill:#385db4;fill-opacity:1;fill-rule:nonzero;stroke:none;stroke-width:0.1"
       d="m 390.737,284.983 c 0,0 -7.427,-17.43 11.482,-27.134 13.086,-6.716 42.895,10.818 42.895,10.818 l -10.628,22.565 c 0,0 -27.274,-11.251 -43.749,-6.249" /><path
       inkscape:connector-curvature="0"
       id="path164"
       style="fill:#f6876f;fill-opacity:1;fill-rule:nonzero;stroke:none;stroke-width:0.1"
       d="m 440.64,365.996 c -0.741,-0.519 -0.589,-3.72 -0.264,-6.735 -0.104,-0.015 -0.21,-0.033 -0.317,-0.052 -0.879,4.024 -2.629,10.868 -4.126,9.562 -0.98,-0.855 0.333,-6.757 1.226,-10.287 -0.184,-0.057 -0.37,-0.115 -0.555,-0.175 -1.127,4.191 -3.556,12.261 -5.173,10.691 -1.079,-1.046 0.992,-8.153 2.142,-11.779 -0.161,-0.062 -0.317,-0.124 -0.471,-0.185 -1.1,3.517 -3.45,10.17 -5.06,8.607 -1.458,-1.415 2.72,-11.473 2.72,-11.473 v 0 l 1.094,-3.948 c 0,0 -1.301,-0.562 -3.333,1.736 -2.031,2.297 -4.46,2.702 -2.773,-0.623 1.907,-3.756 4.729,-6.45 5.972,-9.108 1.242,-2.659 5.15,-3.538 5.15,-3.538 l 7.847,0.379 c 0,0 1.522,13.264 -1.406,19.586 v 0 c -0.502,3.758 -1.386,8.245 -2.673,7.342" /><path
       inkscape:connector-curvature="0"
       id="path166"
       style="fill:#2f335d;fill-opacity:1;fill-rule:nonzero;stroke:none;stroke-width:0.1"
       d="m 343.55,335.409 c 0,-13.367 8.228,-22.576 21.589,-22.576 13.366,0 22.683,9.901 22.683,23.268 0,3.686 -0.601,7.128 -1.758,10.173 -0.068,0.182 -0.136,0.363 -0.21,0.538 -0.141,0.347 -0.289,0.692 -0.448,1.027 -0.232,0.516 -0.493,1.021 -0.765,1.509 -3.482,6.26 -9.72,10.241 -18.102,10.241 -16.025,0 -22.989,-10.814 -22.989,-24.18" /><path
       inkscape:connector-curvature="0"
       id="path168"
       style="fill:#f25349;fill-opacity:1;fill-rule:nonzero;stroke:none;stroke-width:0.1"
       d="m 346.55,329.654 c 0,0 -3.713,4.951 -6.474,0.857 -2.762,-4.094 1.143,-16.186 7.902,-13.234 l -1.428,12.377" /><path
       inkscape:connector-curvature="0"
       id="path170"
       style="fill:#e43342;fill-opacity:1;fill-rule:nonzero;stroke:none;stroke-width:0.1"
       d="m 346.502,321.013 c -0.249,0 -0.479,0.166 -0.55,0.418 -1.047,3.733 -4.915,5.246 -4.954,5.261 -0.294,0.113 -0.442,0.442 -0.331,0.737 0.112,0.294 0.441,0.443 0.736,0.332 0.181,-0.069 4.443,-1.723 5.65,-6.022 0.085,-0.303 -0.093,-0.619 -0.397,-0.704 -0.051,-0.014 -0.102,-0.022 -0.154,-0.022" /><path
       inkscape:connector-curvature="0"
       id="path172"
       style="fill:#e43342;fill-opacity:1;fill-rule:nonzero;stroke:none;stroke-width:0.1"
       d="m 342.599,322.894 c -0.107,0 -0.214,0.029 -0.31,0.091 -0.265,0.171 -0.341,0.524 -0.171,0.79 0.028,0.044 0.713,1.088 2.145,1.728 0.286,0.129 0.626,0 0.755,-0.288 0.127,-0.288 0,-0.626 -0.289,-0.755 -1.107,-0.495 -1.645,-1.296 -1.65,-1.304 -0.109,-0.17 -0.293,-0.262 -0.48,-0.262" /><path
       inkscape:connector-curvature="0"
       id="path174"
       style="fill:#f25349;fill-opacity:1;fill-rule:nonzero;stroke:none;stroke-width:0.1"
       d="m 384.816,329.654 c 0,0 3.714,4.951 6.475,0.857 2.762,-4.094 -1.143,-16.186 -7.902,-13.234 l 1.427,12.377" /><path
       inkscape:connector-curvature="0"
       id="path176"
       style="fill:#e43342;fill-opacity:1;fill-rule:nonzero;stroke:none;stroke-width:0.1"
       d="m 384.865,321.013 c 0.249,0 0.479,0.166 0.55,0.418 1.047,3.733 4.915,5.246 4.954,5.261 0.294,0.113 0.442,0.442 0.33,0.737 -0.111,0.294 -0.44,0.443 -0.735,0.332 -0.181,-0.069 -4.443,-1.723 -5.65,-6.022 -0.085,-0.303 0.092,-0.619 0.396,-0.704 0.052,-0.014 0.103,-0.022 0.155,-0.022" /><path
       inkscape:connector-curvature="0"
       id="path178"
       style="fill:#e43342;fill-opacity:1;fill-rule:nonzero;stroke:none;stroke-width:0.1"
       d="m 388.769,322.894 c 0.106,0 0.213,0.029 0.308,0.091 0.266,0.171 0.342,0.524 0.171,0.79 -0.028,0.044 -0.712,1.088 -2.144,1.728 -0.286,0.129 -0.626,0 -0.754,-0.288 -0.129,-0.288 0,-0.626 0.288,-0.755 1.107,-0.495 1.645,-1.296 1.65,-1.304 0.109,-0.17 0.293,-0.262 0.481,-0.262" /><path
       inkscape:connector-curvature="0"
       id="path180"
       style="fill:#f6876f;fill-opacity:1;fill-rule:nonzero;stroke:none;stroke-width:0.1"
       d="m 374.824,307.021 v -12.025 c 0,0 -3.586,-6.124 -8.436,-6.541 -4.845,-0.423 -9.15,5.273 -9.15,5.273 v 12.447 l 17.586,0.846" /><path
       inkscape:connector-curvature="0"
       id="path182"
       style="fill:#f25349;fill-opacity:1;fill-rule:nonzero;stroke:none;stroke-width:0.1"
       d="m 374.824,307.021 v -5.336 c -3.255,-3.611 -9.034,-4.513 -17.586,-3.25 v 7.74 l 17.586,0.846" /><path
       inkscape:connector-curvature="0"
       id="path184"
       style="fill:#f6876f;fill-opacity:1;fill-rule:nonzero;stroke:none;stroke-width:0.1"
       d="m 387.502,337.903 c -0.223,-4.673 -0.669,-10.517 -1.56,-15.19 -0.222,-1.165 -0.474,-2.262 -0.754,-3.245 -2.531,-8.86 -8.86,-24.055 -26.581,-17.726 -7.826,2.794 -11.454,11.511 -13.07,20.377 -1.097,6.021 -1.263,12.105 -1.183,16.453 0.086,4.438 2.508,8.494 6.37,10.682 10.46,5.93 21.497,3.719 28.763,0.925 5.044,-1.936 8.272,-6.889 8.015,-12.276" /><path
       inkscape:connector-curvature="0"
       id="path186"
       style="fill:#2f335d;fill-opacity:1;fill-rule:nonzero;stroke:none;stroke-width:0.1"
       d="m 358.085,328.084 c 0,-1.283 -0.661,-2.324 -1.478,-2.324 -0.815,0 -1.477,1.041 -1.477,2.324 0,1.284 0.662,2.325 1.477,2.325 0.817,0 1.478,-1.041 1.478,-2.325" /><path
       inkscape:connector-curvature="0"
       id="path188"
       style="fill:#2f335d;fill-opacity:1;fill-rule:nonzero;stroke:none;stroke-width:0.1"
       d="m 375.502,328.132 c 0,-1.283 -0.662,-2.324 -1.478,-2.324 -0.816,0 -1.478,1.041 -1.478,2.324 0,1.284 0.662,2.325 1.478,2.325 0.816,0 1.478,-1.041 1.478,-2.325" /><path
       inkscape:connector-curvature="0"
       id="path190"
       style="fill:#2f335d;fill-opacity:1;fill-rule:nonzero;stroke:none;stroke-width:0.1"
       d="m 378.841,336.12 c 0,0 -4.662,1.842 -8.252,0.292 l 0.359,-1.997 c 0,0 5.269,0.445 7.923,-0.63 0.238,0.768 0.273,1.545 -0.03,2.335" /><path
       inkscape:connector-curvature="0"
       id="path192"
       style="fill:#2f335d;fill-opacity:1;fill-rule:nonzero;stroke:none;stroke-width:0.1"
       d="m 351.677,336.12 c 0,0 4.662,1.842 8.252,0.292 l -0.359,-1.997 c 0,0 -5.268,0.445 -7.924,-0.63 -0.237,0.768 -0.272,1.545 0.031,2.335" /><path
       inkscape:connector-curvature="0"
       id="path194"
       style="fill:#f25349;fill-opacity:1;fill-rule:nonzero;stroke:none;stroke-width:0.1"
       d="m 365.882,318.344 c 0.964,0 1.92,0.375 2.068,0.435 0.291,0.12 0.431,0.453 0.313,0.745 -0.119,0.292 -0.453,0.433 -0.745,0.313 -0.516,-0.209 -1.754,-0.538 -2.291,-0.216 -0.104,0.062 -0.246,0.185 -0.282,0.532 -0.206,1.994 0.34,8.681 0.346,8.748 0.025,0.315 -0.208,0.591 -0.522,0.617 -0.316,0.026 -0.59,-0.208 -0.617,-0.523 -0.022,-0.279 -0.56,-6.86 -0.342,-8.96 0.081,-0.79 0.496,-1.195 0.83,-1.395 0.366,-0.219 0.804,-0.296 1.242,-0.296" /><path
       inkscape:connector-curvature="0"
       id="path196"
       style="fill:#ffffff;fill-opacity:1;fill-rule:nonzero;stroke:none;stroke-width:0.1"
       d="m 358.211,315.443 c 0.95,-3.296 3.649,-6.584 7.368,-6.63 3.715,0.046 6.414,3.334 7.364,6.63 h -14.732" /><path
       inkscape:connector-curvature="0"
       id="path198"
       style="fill:#f25349;fill-opacity:1;fill-rule:nonzero;stroke:none;stroke-width:0.1"
       d="m 365.261,305.233 c 1.478,0 2.732,0.749 2.785,0.781 0.269,0.163 0.356,0.514 0.192,0.784 -0.163,0.27 -0.514,0.356 -0.784,0.193 -0.01,-0.006 -1.041,-0.616 -2.193,-0.616 -1.057,0 -2.069,0.607 -2.079,0.613 -0.269,0.165 -0.621,0.083 -0.787,-0.186 -0.165,-0.268 -0.082,-0.62 0.187,-0.786 0.051,-0.032 1.283,-0.783 2.679,-0.783" /><path
       inkscape:connector-curvature="0"
       id="path200"
       style="fill:#2f335d;fill-opacity:1;fill-rule:nonzero;stroke:none;stroke-width:0.1"
       d="m 386.897,329.553 h -2.588 c 0.286,2.599 0.696,7.177 -1.439,7.833 -6.746,2.072 1.996,6.839 -1.049,9.216 -3.045,2.381 -10.624,1.361 -15.894,1.531 -5.303,0.172 -13.826,0.097 -15.894,-0.383 -2.074,-0.474 -0.937,-3.917 -0.178,-6.584 0.766,-2.663 -2.542,-5.611 -3.095,-8.37 -0.159,-0.792 -0.126,-1.968 0.001,-3.243 h -2.158 c -0.256,3.358 -0.295,6.484 -0.249,9.019 0.086,4.438 2.508,8.494 6.37,10.682 10.46,5.93 21.497,3.719 28.763,0.925 5.044,-1.936 8.272,-6.889 8.015,-12.276 -0.122,-2.56 -0.312,-5.472 -0.605,-8.35" /><path
       inkscape:connector-curvature="0"
       id="path202"
       style="fill:#ffffff;fill-opacity:1;fill-rule:nonzero;stroke:none;stroke-width:0.1"
       d="m 356.348,333.281 c -3.011,0 -5.459,-2.449 -5.459,-5.459 0,-3.01 2.448,-5.459 5.459,-5.459 3.009,0 5.459,2.449 5.459,5.459 0,3.01 -2.45,5.459 -5.459,5.459 z m 0,-11.927 c -3.567,0 -6.468,2.902 -6.468,6.468 0,3.566 2.901,6.467 6.468,6.467 3.565,0 6.466,-2.901 6.466,-6.467 0,-3.566 -2.901,-6.468 -6.466,-6.468" /><path
       inkscape:connector-curvature="0"
       id="path204"
       style="fill:#ffffff;fill-opacity:1;fill-rule:nonzero;stroke:none;stroke-width:0.1"
       d="m 374.024,333.281 c -3.01,0 -5.459,-2.449 -5.459,-5.459 0,-3.01 2.449,-5.459 5.459,-5.459 3.01,0 5.459,2.449 5.459,5.459 0,3.01 -2.449,5.459 -5.459,5.459 z m 0,-11.927 c -3.566,0 -6.467,2.902 -6.467,6.468 0,3.566 2.901,6.467 6.467,6.467 3.566,0 6.467,-2.901 6.467,-6.467 0,-3.566 -2.901,-6.468 -6.467,-6.468" /><path
       inkscape:connector-curvature="0"
       id="path206"
       style="fill:#ffffff;fill-opacity:1;fill-rule:nonzero;stroke:none;stroke-width:0.1"
       d="m 350.973,329.905 c -0.128,0 -0.256,0.048 -0.355,0.146 v 0 c -0.029,0.029 -2.967,2.879 -6.821,1.98 -0.271,-0.064 -0.542,0.105 -0.606,0.376 -0.062,0.271 0.106,0.542 0.377,0.606 4.408,1.028 7.625,-2.113 7.761,-2.247 0.196,-0.196 0.198,-0.516 10e-4,-0.713 -0.098,-0.099 -0.227,-0.148 -0.357,-0.148" /><path
       inkscape:connector-curvature="0"
       id="path208"
       style="fill:#ffffff;fill-opacity:1;fill-rule:nonzero;stroke:none;stroke-width:0.1"
       d="m 379.518,329.905 c -0.165,0 -0.327,0.08 -0.423,0.228 -0.153,0.233 -0.087,0.545 0.146,0.698 0.193,0.126 4.769,3.078 8.663,2.437 0.275,-0.046 0.46,-0.305 0.415,-0.58 -0.045,-0.274 -0.302,-0.46 -0.579,-0.416 -3.505,0.578 -7.903,-2.257 -7.948,-2.285 -0.085,-0.056 -0.18,-0.082 -0.274,-0.082" /><path
       inkscape:connector-curvature="0"
       id="path210"
       style="fill:#ffffff;fill-opacity:1;fill-rule:nonzero;stroke:none;stroke-width:0.1"
       d="m 367.912,329.274 c -0.011,0.016 -1.209,1.636 -2.783,1.636 -1.56,0 -2.642,-1.617 -2.652,-1.633 l -0.845,0.551 c 0.055,0.085 1.386,2.09 3.497,2.09 2.096,0 3.54,-1.97 3.6,-2.054 l -0.817,-0.59" /><path
       inkscape:connector-curvature="0"
       id="path212"
       style="fill:#f6876f;fill-opacity:1;fill-rule:nonzero;stroke:none;stroke-width:0.1"
       d="m 329.42,236.171 c 0,0 -6.813,-13.192 -14.835,-23.641 -2.367,-3.083 -4.837,-5.926 -7.272,-8.121 -3.944,-3.561 -7.791,-5.424 -10.923,-3.844 -11.619,5.858 -37.521,52.473 -37.521,52.473 l 6.379,7.566 c 0,0 11.528,-13.313 19.959,-21.28 7.775,-7.346 13.754,-12.839 13.754,-12.839 1.076,1.638 2.223,3.433 3.415,5.333 1.268,2.017 2.583,4.152 3.922,6.347 9.708,15.939 20.48,35.073 20.48,35.073 l 2.642,-37.067" /><path
       inkscape:connector-curvature="0"
       id="path214"
       style="fill:#f25349;fill-opacity:1;fill-rule:nonzero;stroke:none;stroke-width:0.1"
       d="m 314.585,212.53 c -2.367,-3.083 -4.837,-5.926 -7.272,-8.121 l -4.937,27.409 c 1.268,2.017 2.583,4.152 3.922,6.347 l 8.287,-25.635" /><path
       inkscape:connector-curvature="0"
       id="path216"
       style="fill:#385db4;fill-opacity:1;fill-rule:nonzero;stroke:none;stroke-width:0.1"
       d="m 326.778,273.238 -23.284,-36.62 7.815,-32.209 19.267,31.374 c 0,0 2.337,21.464 -3.798,37.455" /><path
       inkscape:connector-curvature="0"
       id="path218"
       style="fill:#385db4;fill-opacity:1;fill-rule:nonzero;stroke:none;stroke-width:0.1"
       d="m 297.501,91.3191 c -1.662,9.2159 -3.302,19.6099 -4.792,29.7029 -0.326,2.233 -0.647,4.446 -0.962,6.629 -1.194,8.358 -2.262,16.26 -3.118,22.817 -0.327,2.491 -0.62,4.791 -0.887,6.843 -0.831,6.545 -1.319,10.611 -1.319,10.611 l -36.769,-1.39 -36.882,1.39 c 0,0 -0.95,-8.045 -2.472,-19.709 -0.279,-2.123 -0.575,-4.362 -0.887,-6.699 -0.819,-6.122 -1.755,-12.882 -2.762,-19.804 -0.015,-0.101 -0.03,-0.202 -0.045,-0.304 -0.316,-2.157 -0.635,-4.329 -0.966,-6.501 -0.004,-0.03 -0.007,-0.056 -0.015,-0.087 v -0.004 c -0.789,-5.249 -1.616,-10.491 -2.458,-15.5339 -0.345,-2.0813 -0.695,-4.1262 -1.048,-6.1172 -0.109,-0.6199 -0.219,-1.234 -0.328,-1.8438 h 95.71" /><path
       inkscape:connector-curvature="0"
       id="path220"
       style="fill:#3948a5;fill-opacity:1;fill-rule:nonzero;stroke:none;stroke-width:0.1"
       d="m 221.248,156.879 c 0,-1.914 -1.552,-3.466 -3.466,-3.466 -1.914,0 -3.466,1.552 -3.466,3.466 0,1.914 1.552,3.466 3.466,3.466 1.914,0 3.466,-1.552 3.466,-3.466" /><path
       inkscape:connector-curvature="0"
       id="path222"
       style="fill:#3948a5;fill-opacity:1;fill-rule:nonzero;stroke:none;stroke-width:0.1"
       d="m 229.847,143.453 c 0,-1.914 -1.552,-3.466 -3.465,-3.466 -1.914,0 -3.466,1.552 -3.466,3.466 0,1.914 1.552,3.466 3.466,3.466 1.913,0 3.465,-1.552 3.465,-3.466" /><path
       inkscape:connector-curvature="0"
       id="path224"
       style="fill:#3948a5;fill-opacity:1;fill-rule:nonzero;stroke:none;stroke-width:0.1"
       d="m 246.767,150.384 c 0,-1.914 -1.552,-3.465 -3.466,-3.465 -1.914,0 -3.466,1.551 -3.466,3.465 0,1.914 1.552,3.466 3.466,3.466 1.914,0 3.466,-1.552 3.466,-3.466" /><path
       inkscape:connector-curvature="0"
       id="path226"
       style="fill:#3948a5;fill-opacity:1;fill-rule:nonzero;stroke:none;stroke-width:0.1"
       d="m 220.063,129.195 c 0,-1.914 -1.552,-3.466 -3.466,-3.466 -1.914,0 -3.465,1.552 -3.465,3.466 0,1.914 1.551,3.465 3.465,3.465 1.914,0 3.466,-1.551 3.466,-3.465" /><path
       inkscape:connector-curvature="0"
       id="path228"
       style="fill:#3948a5;fill-opacity:1;fill-rule:nonzero;stroke:none;stroke-width:0.1"
       d="m 241.205,130.677 c 0,-1.914 -1.552,-3.465 -3.466,-3.465 -1.913,0 -3.465,1.551 -3.465,3.465 0,1.914 1.552,3.466 3.465,3.466 1.914,0 3.466,-1.552 3.466,-3.466" /><path
       inkscape:connector-curvature="0"
       id="path230"
       style="fill:#3948a5;fill-opacity:1;fill-rule:nonzero;stroke:none;stroke-width:0.1"
       d="m 212.554,144.963 c 0,-1.804 -1.375,-3.288 -3.141,-3.449 0.312,2.337 0.608,4.576 0.887,6.699 1.319,-0.492 2.254,-1.759 2.254,-3.25" /><path
       inkscape:connector-curvature="0"
       id="path232"
       style="fill:#3948a5;fill-opacity:1;fill-rule:nonzero;stroke:none;stroke-width:0.1"
       d="m 275.658,110.317 c 0,-1.914 -1.552,-3.465 -3.466,-3.465 -1.914,0 -3.465,1.551 -3.465,3.465 0,1.913 1.551,3.465 3.465,3.465 1.914,0 3.466,-1.552 3.466,-3.465" /><path
       inkscape:connector-curvature="0"
       id="path234"
       style="fill:#3948a5;fill-opacity:1;fill-rule:nonzero;stroke:none;stroke-width:0.1"
       d="m 274.02,129.195 c 0,-1.914 -1.551,-3.466 -3.464,-3.466 -1.914,0 -3.466,1.552 -3.466,3.466 0,1.914 1.552,3.465 3.466,3.465 1.913,0 3.464,-1.551 3.464,-3.465" /><path
       inkscape:connector-curvature="0"
       id="path236"
       style="fill:#3948a5;fill-opacity:1;fill-rule:nonzero;stroke:none;stroke-width:0.1"
       d="m 292.709,121.022 c -0.417,-0.176 -0.879,-0.274 -1.36,-0.274 -1.913,0 -3.464,1.553 -3.464,3.465 0,1.913 1.551,3.465 3.464,3.465 0.135,0 0.267,-0.008 0.398,-0.027 0.315,-2.183 0.636,-4.396 0.962,-6.629" /><path
       inkscape:connector-curvature="0"
       id="path238"
       style="fill:#3948a5;fill-opacity:1;fill-rule:nonzero;stroke:none;stroke-width:0.1"
       d="m 277.486,96.482 c 0,-1.914 -1.551,-3.4648 -3.466,-3.4648 -1.914,0 -3.464,1.5508 -3.464,3.4648 0,1.9141 1.55,3.4649 3.464,3.4649 1.915,0 3.466,-1.5508 3.466,-3.4649" /><path
       inkscape:connector-curvature="0"
       id="path240"
       style="fill:#3948a5;fill-opacity:1;fill-rule:nonzero;stroke:none;stroke-width:0.1"
       d="m 292.31,102.015 c 0,-1.914 -1.552,-3.4658 -3.466,-3.4658 -1.914,0 -3.466,1.5518 -3.466,3.4658 0,1.913 1.552,3.464 3.466,3.464 1.914,0 3.466,-1.551 3.466,-3.464" /><path
       inkscape:connector-curvature="0"
       id="path242"
       style="fill:#3948a5;fill-opacity:1;fill-rule:nonzero;stroke:none;stroke-width:0.1"
       d="m 261.465,91.3191 c -0.623,0.911 -1.668,1.511 -2.857,1.511 -1.187,0 -2.232,-0.6 -2.855,-1.511 h 5.712" /><path
       inkscape:connector-curvature="0"
       id="path244"
       style="fill:#3948a5;fill-opacity:1;fill-rule:nonzero;stroke:none;stroke-width:0.1"
       d="m 217.782,107.304 c 0,-1.914 -1.552,-3.466 -3.466,-3.466 -1.913,0 -3.465,1.552 -3.465,3.466 0,1.913 1.552,3.465 3.465,3.465 1.914,0 3.466,-1.552 3.466,-3.465" /><path
       inkscape:connector-curvature="0"
       id="path246"
       style="fill:#3948a5;fill-opacity:1;fill-rule:nonzero;stroke:none;stroke-width:0.1"
       d="m 208.639,118.25 c 0,-1.759 -1.311,-3.213 -3.014,-3.432 0.008,0.031 0.011,0.057 0.015,0.087 0.331,2.172 0.65,4.344 0.966,6.501 1.199,-0.549 2.033,-1.755 2.033,-3.156" /><path
       inkscape:connector-curvature="0"
       id="path248"
       style="fill:#3948a5;fill-opacity:1;fill-rule:nonzero;stroke:none;stroke-width:0.1"
       d="m 204.588,96.4852 c 0,-1.5672 -1.041,-2.8891 -2.469,-3.3223 0.353,1.991 0.703,4.0359 1.048,6.1172 0.861,-0.6313 1.421,-1.6492 1.421,-2.7949" /><path
       inkscape:connector-curvature="0"
       id="path250"
       style="fill:#3948a5;fill-opacity:1;fill-rule:nonzero;stroke:none;stroke-width:0.1"
       d="m 226.382,95.0191 c 0,-1.9152 -1.552,-3.466 -3.466,-3.466 -1.914,0 -3.465,1.5508 -3.465,3.466 0,1.9141 1.551,3.4641 3.465,3.4641 1.914,0 3.466,-1.55 3.466,-3.4641" /><path
       inkscape:connector-curvature="0"
       id="path252"
       style="fill:#3948a5;fill-opacity:1;fill-rule:nonzero;stroke:none;stroke-width:0.1"
       d="m 244.67,97.732 c 0,-1.914 -1.551,-3.4648 -3.465,-3.4648 -1.914,0 -3.466,1.5508 -3.466,3.4648 0,1.9141 1.552,3.465 3.466,3.465 1.914,0 3.465,-1.5509 3.465,-3.465" /><path
       inkscape:connector-curvature="0"
       id="path254"
       style="fill:#3948a5;fill-opacity:1;fill-rule:nonzero;stroke:none;stroke-width:0.1"
       d="m 231.623,114.771 c 0,-1.915 -1.552,-3.466 -3.466,-3.466 -1.914,0 -3.465,1.551 -3.465,3.466 0,1.914 1.551,3.465 3.465,3.465 1.914,0 3.466,-1.551 3.466,-3.465" /><path
       inkscape:connector-curvature="0"
       id="path256"
       style="fill:#3948a5;fill-opacity:1;fill-rule:nonzero;stroke:none;stroke-width:0.1"
       d="m 250.232,118.236 c 0,-1.914 -1.551,-3.465 -3.465,-3.465 -1.914,0 -3.466,1.551 -3.466,3.465 0,1.913 1.552,3.465 3.466,3.465 1.914,0 3.465,-1.552 3.465,-3.465" /><path
       inkscape:connector-curvature="0"
       id="path258"
       style="fill:#3948a5;fill-opacity:1;fill-rule:nonzero;stroke:none;stroke-width:0.1"
       d="m 258.608,136.522 c 0,-1.914 -1.55,-3.465 -3.464,-3.465 -1.915,0 -3.466,1.551 -3.466,3.465 0,1.915 1.551,3.465 3.466,3.465 1.914,0 3.464,-1.55 3.464,-3.465" /><path
       inkscape:connector-curvature="0"
       id="path260"
       style="fill:#3948a5;fill-opacity:1;fill-rule:nonzero;stroke:none;stroke-width:0.1"
       d="m 288.629,150.468 c -0.241,-0.057 -0.489,-0.083 -0.744,-0.083 -1.917,0 -3.465,1.552 -3.465,3.465 0,1.864 1.473,3.389 3.322,3.461 0.267,-2.052 0.56,-4.352 0.887,-6.843" /><path
       inkscape:connector-curvature="0"
       id="path262"
       style="fill:#3948a5;fill-opacity:1;fill-rule:nonzero;stroke:none;stroke-width:0.1"
       d="m 270.556,150.384 c 0,-1.914 -1.552,-3.465 -3.466,-3.465 -1.914,0 -3.466,1.551 -3.466,3.465 0,1.914 1.552,3.466 3.466,3.466 1.914,0 3.466,-1.552 3.466,-3.466" /><path
       inkscape:connector-curvature="0"
       id="path264"
       style="fill:#3948a5;fill-opacity:1;fill-rule:nonzero;stroke:none;stroke-width:0.1"
       d="m 283.248,138.033 c 0,-1.913 -1.552,-3.465 -3.466,-3.465 -1.914,0 -3.466,1.552 -3.466,3.465 0,1.914 1.552,3.466 3.466,3.466 1.914,0 3.466,-1.552 3.466,-3.466" /><path
       inkscape:connector-curvature="0"
       id="path266"
       style="fill:#3948a5;fill-opacity:1;fill-rule:nonzero;stroke:none;stroke-width:0.1"
       d="m 262.074,107.304 c 0,-1.914 -1.552,-3.466 -3.466,-3.466 -1.914,0 -3.464,1.552 -3.464,3.466 0,1.913 1.55,3.465 3.464,3.465 1.914,0 3.466,-1.552 3.466,-3.465" /><path
       inkscape:connector-curvature="0"
       id="path268"
       style="fill:#3d89d1;fill-opacity:1;fill-rule:nonzero;stroke:none;stroke-width:0.1"
       d="m 288.659,167.013 c -19.397,-12.663 -55.013,-11.671 -77.393,0 2.138,13.317 4.953,26.649 4.348,44.375 -0.068,1.942 -0.151,3.874 -0.248,5.786 -0.087,1.665 -0.184,3.318 -0.29,4.953 -1.931,29.486 -6.963,53.596 -4.49,56.71 1.078,1.365 2.878,2.838 5.099,4.345 0.872,0.593 1.804,1.194 2.788,1.796 2.322,1.417 4.904,2.844 7.497,4.234 6.151,3.285 12.396,6.332 15.527,8.414 3.104,-1.353 5.576,-2.093 8.24,-2.078 0.072,0 0.15,0 0.229,0.008 0.072,-0.008 0.151,-0.008 0.222,-0.008 2.665,-0.015 5.136,0.725 8.245,2.078 2.904,-1.931 8.372,-4.626 13.952,-7.564 4.099,-2.161 8.26,-4.453 11.498,-6.678 2.12,-1.454 3.851,-2.882 4.911,-4.219 1.226,-1.545 0.711,-8.316 -0.338,-18.349 -1.037,-9.872 -2.589,-22.907 -3.528,-37.235 -0.26,-3.979 -0.474,-8.057 -0.617,-12.193 -0.601,-17.726 2.209,-31.058 4.348,-44.375" /><path
       inkscape:connector-curvature="0"
       id="path270"
       style="fill:#385db4;fill-opacity:1;fill-rule:nonzero;stroke:none;stroke-width:0.1"
       d="m 276.797,181.74 c -0.001,0 -0.002,0 -0.003,0 -15.62,0.069 -28.953,7.176 -37.386,13.127 -9.121,6.436 -14.649,12.956 -14.704,13.022 -0.267,0.317 -0.226,0.792 0.091,1.058 0.318,0.268 0.792,0.227 1.059,-0.091 0.054,-0.063 5.481,-6.46 14.455,-12.785 8.25,-5.815 21.278,-12.761 36.491,-12.828 0.415,-0.002 0.751,-0.34 0.749,-0.755 -0.002,-0.414 -0.339,-0.748 -0.752,-0.748" /><path
       inkscape:connector-curvature="0"
       id="path272"
       style="fill:#385db4;fill-opacity:1;fill-rule:nonzero;stroke:none;stroke-width:0.1"
       d="m 266.456,190.833 c -13.3,2.614 -25.072,12.8 -25.606,13.268 -0.313,0.273 -0.345,0.748 -0.072,1.06 0.274,0.313 0.748,0.343 1.061,0.071 0.138,-0.121 13.992,-12.1 28.109,-13.388 0.42,-0.034 0.718,-0.404 0.681,-0.817 -0.038,-0.413 -0.403,-0.718 -0.817,-0.68 -1.125,0.102 -2.247,0.268 -3.356,0.486" /><path
       inkscape:connector-curvature="0"
       id="path274"
       style="fill:#385db4;fill-opacity:1;fill-rule:nonzero;stroke:none;stroke-width:0.1"
       d="m 246.766,259.64 c -0.354,0 -0.669,0.252 -0.738,0.612 -0.077,0.408 0.191,0.801 0.598,0.878 19.044,3.614 24.783,15.865 24.839,15.988 0.171,0.378 0.616,0.546 0.995,0.375 0.378,-0.171 0.546,-0.616 0.375,-0.994 -0.241,-0.533 -6.125,-13.088 -25.928,-16.845 -0.048,-0.009 -0.095,-0.014 -0.141,-0.014" /><path
       inkscape:connector-curvature="0"
       id="path276"
       style="fill:#f6876f;fill-opacity:1;fill-rule:nonzero;stroke:none;stroke-width:0.1"
       d="m 272.383,290.062 c -3.779,-8.622 -13.072,-17.55 -25.156,-15.463 -11.702,2.023 -17.252,8.212 -21.257,14.614 6.153,3.286 12.397,6.329 15.526,8.412 3.105,-1.351 5.577,-2.091 8.239,-2.079 0.073,0 0.153,0 0.23,0.009 0.072,-0.009 0.153,-0.009 0.225,-0.009 2.662,-0.012 5.135,0.728 8.244,2.079 2.903,-1.93 8.372,-4.624 13.949,-7.563" /><path
       inkscape:connector-curvature="0"
       id="path278"
       style="fill:#ffffff;fill-opacity:1;fill-rule:nonzero;stroke:none;stroke-width:0.1"
       d="m 262.281,296.994 c -0.334,0.004 -0.599,-0.264 -0.601,-0.594 -0.004,-0.484 -0.201,-11.881 -10.432,-12.764 -9.489,-0.824 -13.417,8.259 -14.631,12.028 -0.071,0.221 -0.275,0.369 -0.508,0.369 h -0.112 c -0.365,0 -0.623,-0.356 -0.508,-0.702 1.295,-3.888 5.431,-13.277 15.098,-12.933 0.251,0.01 0.506,0.025 0.764,0.047 11.322,0.977 11.523,13.819 11.524,13.949 0.002,0.329 -0.264,0.598 -0.594,0.6" /><path
       inkscape:connector-curvature="0"
       id="path280"
       style="fill:#2f335d;fill-opacity:1;fill-rule:nonzero;stroke:none;stroke-width:0.1"
       d="m 269.513,357.57 c 0,0 9.143,-14.162 8.141,-28.913 -1.002,-14.751 1.348,-31.78 -11.851,-31.032 -13.2,0.749 -36.744,-5.292 -44.227,6.197 -7.483,11.49 47.937,53.748 47.937,53.748" /><path
       inkscape:connector-curvature="0"
       id="path282"
       style="fill:#1c1a2c;fill-opacity:1;fill-rule:nonzero;stroke:none;stroke-width:0.1"
       d="m 272.901,331.53 c 0,0 2.373,-21.382 -7.772,-27.269 -10.147,-5.887 -17.489,0.685 -17.489,0.685 0,0 21.385,29.804 25.261,26.584" /><path
       inkscape:connector-curvature="0"
       id="path284"
       style="fill:#f25349;fill-opacity:1;fill-rule:nonzero;stroke:none;stroke-width:0.1"
       d="m 230.757,331.629 c 0,0 -3.643,4.858 -6.352,0.841 -2.709,-4.017 1.12,-15.88 7.753,-12.984 l -1.401,12.143" /><path
       inkscape:connector-curvature="0"
       id="path286"
       style="fill:#e43342;fill-opacity:1;fill-rule:nonzero;stroke:none;stroke-width:0.1"
       d="m 230.71,323.152 c -0.245,0 -0.47,0.162 -0.54,0.409 -1.027,3.663 -4.822,5.148 -4.86,5.162 -0.289,0.11 -0.435,0.434 -0.325,0.723 0.11,0.289 0.433,0.435 0.722,0.325 0.177,-0.066 4.359,-1.689 5.543,-5.907 0.083,-0.298 -0.091,-0.608 -0.389,-0.691 -0.05,-0.014 -0.101,-0.021 -0.151,-0.021" /><path
       inkscape:connector-curvature="0"
       id="path288"
       style="fill:#e43342;fill-opacity:1;fill-rule:nonzero;stroke:none;stroke-width:0.1"
       d="m 226.879,324.997 c -0.104,0 -0.209,0.029 -0.302,0.089 -0.261,0.168 -0.336,0.515 -0.168,0.775 0.028,0.043 0.699,1.067 2.104,1.696 0.28,0.127 0.613,0 0.74,-0.283 0.126,-0.283 0,-0.614 -0.283,-0.74 -1.086,-0.487 -1.614,-1.272 -1.619,-1.28 -0.107,-0.167 -0.288,-0.257 -0.472,-0.257" /><path
       inkscape:connector-curvature="0"
       id="path290"
       style="fill:#f25349;fill-opacity:1;fill-rule:nonzero;stroke:none;stroke-width:0.1"
       d="m 268.302,331.629 c 0,0 3.642,4.858 6.351,0.841 2.709,-4.017 -1.12,-15.88 -7.753,-12.984 l 1.402,12.143" /><path
       inkscape:connector-curvature="0"
       id="path292"
       style="fill:#e43342;fill-opacity:1;fill-rule:nonzero;stroke:none;stroke-width:0.1"
       d="m 268.349,323.152 c 0.245,0 0.469,0.162 0.539,0.409 1.028,3.663 4.822,5.148 4.861,5.162 0.288,0.11 0.434,0.434 0.324,0.723 -0.109,0.289 -0.432,0.435 -0.721,0.325 -0.178,-0.066 -4.36,-1.689 -5.543,-5.907 -0.083,-0.298 0.09,-0.608 0.388,-0.691 0.051,-0.014 0.102,-0.021 0.152,-0.021" /><path
       inkscape:connector-curvature="0"
       id="path294"
       style="fill:#e43342;fill-opacity:1;fill-rule:nonzero;stroke:none;stroke-width:0.1"
       d="m 272.179,324.997 c 0.104,0 0.209,0.029 0.302,0.089 0.261,0.168 0.336,0.515 0.168,0.775 -0.027,0.043 -0.699,1.067 -2.103,1.696 -0.281,0.127 -0.614,0 -0.74,-0.283 -0.126,-0.283 0,-0.614 0.282,-0.74 1.087,-0.487 1.614,-1.272 1.619,-1.28 0.107,-0.167 0.288,-0.257 0.472,-0.257" /><path
       inkscape:connector-curvature="0"
       id="path296"
       style="fill:#f6876f;fill-opacity:1;fill-rule:nonzero;stroke:none;stroke-width:0.1"
       d="m 258.497,309.423 v -11.798 c 0,0 -3.518,-6.009 -8.276,-6.417 -4.754,-0.416 -8.978,5.173 -8.978,5.173 v 12.213 l 17.254,0.829" /><path
       inkscape:connector-curvature="0"
       id="path298"
       style="fill:#f25349;fill-opacity:1;fill-rule:nonzero;stroke:none;stroke-width:0.1"
       d="m 258.497,309.423 v -5.235 c -3.192,-3.543 -8.861,-4.798 -17.252,-3.56 l -0.002,7.966 17.254,0.829" /><path
       inkscape:connector-curvature="0"
       id="path300"
       style="fill:#f6876f;fill-opacity:1;fill-rule:nonzero;stroke:none;stroke-width:0.1"
       d="m 270.936,339.723 c -0.218,-4.585 -0.656,-10.319 -1.531,-14.904 -0.217,-1.143 -0.465,-2.219 -0.739,-3.183 -2.483,-8.693 -8.693,-23.602 -26.079,-17.392 -7.679,2.741 -11.238,11.294 -12.824,19.993 -1.076,5.907 -1.239,11.876 -1.16,16.141 0.084,4.355 2.46,8.335 6.249,10.481 10.262,5.818 21.091,3.649 28.22,0.909 4.949,-1.9 8.116,-6.76 7.864,-12.045" /><path
       inkscape:connector-curvature="0"
       id="path302"
       style="fill:#2f335d;fill-opacity:1;fill-rule:nonzero;stroke:none;stroke-width:0.1"
       d="m 241.873,330.937 c 0,-1.259 -0.649,-2.28 -1.45,-2.28 -0.801,0 -1.45,1.021 -1.45,2.28 0,1.259 0.649,2.28 1.45,2.28 0.801,0 1.45,-1.021 1.45,-2.28" /><path
       inkscape:connector-curvature="0"
       id="path304"
       style="fill:#2f335d;fill-opacity:1;fill-rule:nonzero;stroke:none;stroke-width:0.1"
       d="m 259.775,330.937 c 0,-1.259 -0.649,-2.28 -1.45,-2.28 -0.8,0 -1.449,1.021 -1.449,2.28 0,1.259 0.649,2.28 1.449,2.28 0.801,0 1.45,-1.021 1.45,-2.28" /><path
       inkscape:connector-curvature="0"
       id="path306"
       style="fill:#2f335d;fill-opacity:1;fill-rule:nonzero;stroke:none;stroke-width:0.1"
       d="m 237.551,337.726 c 1.205,0.34 3.637,0.921 6.202,0.929 0.675,0.002 1.192,-0.598 1.073,-1.263 l -0.003,-0.017 c -0.096,-0.53 -0.57,-0.906 -1.109,-0.88 -1.745,0.081 -6.328,-0.164 -8.492,-1.041 -0.044,0.376 0.179,0.788 0.494,1.153 0.477,0.554 1.132,0.92 1.835,1.119" /><path
       inkscape:connector-curvature="0"
       id="path308"
       style="fill:#2f335d;fill-opacity:1;fill-rule:nonzero;stroke:none;stroke-width:0.1"
       d="m 260.976,337.679 c -1.205,0.341 -3.636,0.922 -6.202,0.929 -0.675,0.002 -1.192,-0.598 -1.073,-1.262 l 0.003,-0.017 c 0.096,-0.531 0.57,-0.906 1.109,-0.881 1.746,0.081 6.328,-0.164 8.492,-1.041 0.044,0.376 -0.179,0.788 -0.493,1.154 -0.478,0.554 -1.132,0.919 -1.836,1.118" /><path
       inkscape:connector-curvature="0"
       id="path310"
       style="fill:#f25349;fill-opacity:1;fill-rule:nonzero;stroke:none;stroke-width:0.1"
       d="m 249.724,320.533 c -0.429,0 -0.86,0.075 -1.219,0.29 -0.327,0.197 -0.734,0.594 -0.815,1.369 -0.213,2.059 0.314,8.517 0.337,8.791 0.025,0.309 0.295,0.538 0.604,0.513 0.309,-0.026 0.538,-0.297 0.513,-0.605 -0.005,-0.066 -0.541,-6.627 -0.339,-8.584 0.035,-0.34 0.174,-0.461 0.276,-0.521 0.526,-0.316 1.742,0.006 2.248,0.212 0.286,0.117 0.614,-0.021 0.731,-0.308 0.116,-0.286 -0.021,-0.613 -0.307,-0.73 -0.146,-0.06 -1.084,-0.427 -2.029,-0.427" /><path
       inkscape:connector-curvature="0"
       id="path312"
       style="fill:#ffffff;fill-opacity:1;fill-rule:nonzero;stroke:none;stroke-width:0.1"
       d="m 242.606,316.994 c 0.424,-2.132 1.832,-6.055 6.577,-6.055 4.755,0 6.089,3.585 6.547,6.055 h -13.124" /><path
       inkscape:connector-curvature="0"
       id="path314"
       style="fill:#f25349;fill-opacity:1;fill-rule:nonzero;stroke:none;stroke-width:0.1"
       d="m 249.115,307.669 c -1.369,0 -2.578,0.737 -2.63,0.768 -0.263,0.163 -0.344,0.509 -0.181,0.772 0.162,0.263 0.506,0.344 0.77,0.183 v 0 c 0.01,-0.006 0.996,-0.602 2.041,-0.602 1.13,0 2.142,0.598 2.153,0.605 0.265,0.158 0.609,0.073 0.768,-0.192 0.159,-0.265 0.075,-0.608 -0.189,-0.768 -0.052,-0.032 -1.282,-0.766 -2.732,-0.766" /><path
       inkscape:connector-curvature="0"
       id="path316"
       style="fill:#2f335d;fill-opacity:1;fill-rule:nonzero;stroke:none;stroke-width:0.1"
       d="m 273.192,340.636 c -0.18,-0.511 -0.679,-0.838 -1.348,-1.033 0.049,-1.236 -0.081,-2.723 -0.203,-4.148 -0.692,-8.101 -2.736,-9.524 -3.198,-7.521 -0.304,1.331 -0.286,8.96 -0.139,11.447 -1.601,0.105 -2.969,0.372 -2.969,0.372 l -1.879,7.865 -0.657,-7.767 c -2.819,-0.981 -9.395,0.59 -9.395,0.59 l -2.205,7.752 -1.364,-7.459 c -4.228,-2.059 -9.511,-0.688 -9.511,-0.688 l -1.214,8.046 -2.803,-8.046 c 0,0 -9.018,-3.235 -9.116,0 -0.06,1.883 1.319,7.185 2.484,11.292 1.27,4.479 4.212,8.264 8.192,10.398 11.186,6.005 23.016,2.81 27.073,0.387 8.606,-5.137 8.252,-21.487 8.252,-21.487" /><path
       inkscape:connector-curvature="0"
       id="path318"
       style="fill:#2f335d;fill-opacity:1;fill-rule:nonzero;stroke:none;stroke-width:0.1"
       d="m 232.158,356.971 c 0,0 -7.425,-8.83 -9.867,-24.601 -2.442,-15.771 -5.824,-27.424 3.679,-32.631 10.285,-5.636 9.395,5.923 9.247,9.065 -0.149,3.141 -8.898,11.729 -3.059,35.915 1.885,7.808 0,12.252 0,12.252" /><path
       inkscape:connector-curvature="0"
       id="path320"
       style="fill:#1c1a2c;fill-opacity:1;fill-rule:nonzero;stroke:none;stroke-width:0.1"
       d="m 230.423,324.381 c 0,0 0,-0.008 0,-0.019 0.003,-0.116 0.011,-0.744 0.056,-1.725 0.022,-0.609 0.06,-1.349 0.117,-2.191 0.349,-5.313 1.383,-14.489 4.419,-17.672 1.198,-1.259 3.509,-1.89 6.23,-2.146 v 4.175 c -2.868,1.361 -5.103,3.596 -6.835,6.347 -1.071,2.318 -2.916,5.948 -3.781,11.656 l -0.206,1.575" /><path
       inkscape:connector-curvature="0"
       id="path322"
       style="fill:#ffffff;fill-opacity:1;fill-rule:nonzero;stroke:none;stroke-width:0.1"
       d="m 271.07,319.22 c 0,-0.726 -0.589,-1.314 -1.313,-1.314 -0.726,0 -1.314,0.588 -1.314,1.314 0,0.725 0.588,1.313 1.314,1.313 0.724,0 1.313,-0.588 1.313,-1.313" /><path
       inkscape:connector-curvature="0"
       id="path324"
       style="fill:#3d89d1;fill-opacity:1;fill-rule:nonzero;stroke:none;stroke-width:0.1"
       d="m 297.83,220.298 c -3.719,-10.649 -20.377,-9.873 -39.349,-4.052 -0.027,0.008 -0.054,0.018 -0.082,0.025 -0.06,0.018 -0.117,0.038 -0.177,0.055 l -2.61,0.832 c -0.36,0.118 -0.722,0.238 -1.082,0.361 -2.045,0.684 -4.104,1.424 -6.172,2.21 -6.778,2.574 -13.61,5.625 -20.051,8.88 l 0.045,0.113 1.94,5.039 0.662,1.715 c 0,0 35.171,-3.832 52.856,-0.135 0.3,0.062 0.592,0.125 0.879,0.192 -0.069,0.393 -0.091,0.793 -0.202,1.167 -9.37,31.9 0.878,38.016 4.307,42.466 0,0 16.058,-38.767 9.036,-58.868" /><path
       inkscape:connector-curvature="0"
       id="path326"
       style="fill:#385db4;fill-opacity:1;fill-rule:nonzero;stroke:none;stroke-width:0.1"
       d="m 292.099,230.171 c -0.105,-0.05 -0.218,-0.074 -0.328,-0.074 -0.277,0 -0.544,0.154 -0.674,0.42 -1.34,2.744 -5.89,4.377 -7.287,4.824 0.3,0.062 0.592,0.125 0.879,0.192 -0.069,0.393 -0.136,0.782 -0.202,1.167 1.778,-0.587 6.419,-2.377 7.956,-5.526 0.183,-0.37 0.028,-0.82 -0.344,-1.003" /><path
       inkscape:connector-curvature="0"
       id="path328"
       style="fill:#385db4;fill-opacity:1;fill-rule:nonzero;stroke:none;stroke-width:0.1"
       d="m 242.837,231.508 c -7.178,0 -13.007,0.412 -13.515,0.449 -0.413,0.03 -0.723,0.39 -0.694,0.803 0.031,0.413 0.39,0.72 0.803,0.693 0.265,-0.018 26.648,-1.886 37.05,2.334 0.383,0.155 0.821,-0.028 0.977,-0.413 0.155,-0.383 -0.029,-0.82 -0.413,-0.977 -5.758,-2.335 -15.889,-2.889 -24.208,-2.889" /><path
       inkscape:connector-curvature="0"
       id="path330"
       style="fill:#385db4;fill-opacity:1;fill-rule:nonzero;stroke:none;stroke-width:0.1"
       d="m 255.612,217.158 c 0.002,0 0.002,0 0.002,0 6.02,1.66 11.491,3.278 14.651,4.29 4.386,1.407 8.016,5.841 9.666,9.611 0.165,0.379 0.607,0.552 0.987,0.384 0.38,-0.165 0.553,-0.607 0.388,-0.987 -1.786,-4.076 -5.749,-8.886 -10.583,-10.438 -2.293,-0.736 -5.795,-1.785 -9.843,-2.94 -1.725,-0.493 -3.559,-0.465 -5.268,0.08 v 0" /><path
       inkscape:connector-curvature="0"
       id="path332"
       style="fill:#3d89d1;fill-opacity:1;fill-rule:nonzero;stroke:none;stroke-width:0.1"
       d="m 271.837,222.315 c -54.356,-18.307 -71.078,-6.327 -71.078,-6.327 -3.659,33.093 9.825,62.85 9.825,62.85 3.985,-6.568 8.489,-18.034 8.489,-18.034 l 1.19,-25.366 -0.09,-0.705 -0.043,-0.333 -0.224,-1.734 -0.006,-0.035 c 0.116,-0.025 0.233,-0.05 0.35,-0.075 16.443,-3.469 46.513,0.408 46.513,0.408 l 5.074,-10.649" /><path
       inkscape:connector-curvature="0"
       id="path334"
       style="fill:#385db4;fill-opacity:1;fill-rule:nonzero;stroke:none;stroke-width:0.1"
       d="m 220.25,232.556 c -2.934,-2.459 -5.721,-5.294 -8.206,-8.551 -0.25,-0.33 -0.722,-0.395 -1.052,-0.143 -0.33,0.25 -0.392,0.72 -0.145,1.05 0.003,0 0.003,0.003 0.003,0.003 2.792,3.667 5.956,6.806 9.28,9.485 l -0.224,-1.734 -0.006,-0.035 c 0.116,-0.025 0.233,-0.05 0.35,-0.075" /><path
       inkscape:connector-curvature="0"
       id="path336"
       style="fill:#f6876f;fill-opacity:1;fill-rule:nonzero;stroke:none;stroke-width:0.1"
       d="m 266.763,232.963 c 0,0 6.018,13.67 15.167,12.453 l 2.759,-9.884 c -5.008,-2.126 -5.741,-10.714 -12.851,-13.217 l -5.075,10.648" /><path
       inkscape:connector-curvature="0"
       id="path338"
       style="fill:#f6876f;fill-opacity:1;fill-rule:nonzero;stroke:none;stroke-width:0.1"
       d="m 230.955,235.476 c 0,0 -3.8,8.92 -13.802,11.509 -10.001,2.59 -16.373,-2.124 -17.045,-3.902 -0.671,-1.779 3.772,-0.079 3.772,-0.079 0,0 -2.894,-0.819 -4.554,-3.539 -1.66,-2.719 4.041,0.215 4.041,0.215 0,0 -4.088,-1.791 -4.608,-3.452 -0.52,-1.662 4.872,1.145 5.886,1.091 0,0 -4.815,-1.914 -4.782,-3.628 0.032,-1.713 5.531,1.081 9.636,0.861 4.106,-0.222 10.401,-1.922 10.401,-1.922 3.36,-0.64 6.571,-1.112 9.476,-1.247 l 1.579,4.093" /><path
       inkscape:connector-curvature="0"
       id="path340"
       style="fill:#385db4;fill-opacity:1;fill-rule:nonzero;stroke:none;stroke-width:0.1"
       d="m 327.535,385.49 c -2.541,0 -4.607,-2.067 -4.607,-4.608 0,-2.54 2.066,-4.607 4.607,-4.607 2.54,0 4.608,2.067 4.608,4.607 0,2.541 -2.068,4.608 -4.608,4.608 z m 0,-11.321 c -3.702,0 -6.714,3.012 -6.714,6.713 0,3.702 3.012,6.714 6.714,6.714 3.702,0 6.714,-3.012 6.714,-6.714 0,-3.701 -3.012,-6.713 -6.714,-6.713" /><path
       inkscape:connector-curvature="0"
       id="path342"
       style="fill:#3d89d1;fill-opacity:1;fill-rule:nonzero;stroke:none;stroke-width:0.1"
       d="m 386.11,396.896 c -2.541,0 -4.607,-2.066 -4.607,-4.607 0,-2.54 2.066,-4.607 4.607,-4.607 2.54,0 4.608,2.067 4.608,4.607 0,2.541 -2.068,4.607 -4.608,4.607 z m 0,-11.321 c -3.702,0 -6.714,3.012 -6.714,6.714 0,3.702 3.012,6.714 6.714,6.714 3.702,0 6.714,-3.012 6.714,-6.714 0,-3.702 -3.012,-6.714 -6.714,-6.714" /><path
       inkscape:connector-curvature="0"
       id="path344"
       style="fill:#385db4;fill-opacity:1;fill-rule:nonzero;stroke:none;stroke-width:0.1"
       d="m 394.405,363.758 c -0.581,0 -1.052,0.472 -1.052,1.054 v 4.644 c 0,0.582 0.471,1.053 1.052,1.053 0.581,0 1.053,-0.471 1.053,-1.053 v -4.644 c 0,-0.582 -0.472,-1.054 -1.053,-1.054" /><path
       inkscape:connector-curvature="0"
       id="path346"
       style="fill:#385db4;fill-opacity:1;fill-rule:nonzero;stroke:none;stroke-width:0.1"
       d="m 394.405,355.631 c -0.581,0 -1.052,0.472 -1.052,1.053 v 4.645 c 0,0.581 0.471,1.052 1.052,1.052 0.581,0 1.053,-0.471 1.053,-1.052 v -4.645 c 0,-0.581 -0.472,-1.053 -1.053,-1.053" /><path
       inkscape:connector-curvature="0"
       id="path348"
       style="fill:#385db4;fill-opacity:1;fill-rule:nonzero;stroke:none;stroke-width:0.1"
       d="m 400.924,362.017 h -4.172 c -0.581,0 -1.053,0.471 -1.053,1.053 0,0.582 0.472,1.053 1.053,1.053 h 4.172 c 0.582,0 1.054,-0.471 1.054,-1.053 0,-0.582 -0.472,-1.053 -1.054,-1.053" /><path
       inkscape:connector-curvature="0"
       id="path350"
       style="fill:#385db4;fill-opacity:1;fill-rule:nonzero;stroke:none;stroke-width:0.1"
       d="m 392.059,362.017 h -4.172 c -0.582,0 -1.054,0.471 -1.054,1.053 0,0.582 0.472,1.053 1.054,1.053 h 4.172 c 0.581,0 1.052,-0.471 1.052,-1.053 0,-0.582 -0.471,-1.053 -1.052,-1.053" /><path
       inkscape:connector-curvature="0"
       id="path352"
       style="fill:#373d9c;fill-opacity:1;fill-rule:nonzero;stroke:none;stroke-width:0.1"
       d="m 358.943,391.893 c -0.581,0 -1.052,0.472 -1.052,1.053 v 4.645 c 0,0.581 0.471,1.053 1.052,1.053 0.582,0 1.053,-0.472 1.053,-1.053 v -4.645 c 0,-0.581 -0.471,-1.053 -1.053,-1.053" /><path
       inkscape:connector-curvature="0"
       id="path354"
       style="fill:#373d9c;fill-opacity:1;fill-rule:nonzero;stroke:none;stroke-width:0.1"
       d="m 358.943,383.766 c -0.581,0 -1.052,0.471 -1.052,1.053 v 4.644 c 0,0.582 0.471,1.053 1.052,1.053 0.582,0 1.053,-0.471 1.053,-1.053 v -4.644 c 0,-0.582 -0.471,-1.053 -1.053,-1.053" /><path
       inkscape:connector-curvature="0"
       id="path356"
       style="fill:#373d9c;fill-opacity:1;fill-rule:nonzero;stroke:none;stroke-width:0.1"
       d="m 365.462,390.151 h -4.172 c -0.581,0 -1.053,0.472 -1.053,1.054 0,0.581 0.472,1.053 1.053,1.053 h 4.172 c 0.582,0 1.054,-0.472 1.054,-1.053 0,-0.582 -0.472,-1.054 -1.054,-1.054" /><path
       inkscape:connector-curvature="0"
       id="path358"
       style="fill:#373d9c;fill-opacity:1;fill-rule:nonzero;stroke:none;stroke-width:0.1"
       d="m 356.597,390.151 h -4.172 c -0.582,0 -1.054,0.472 -1.054,1.054 0,0.581 0.472,1.053 1.054,1.053 h 4.172 c 0.581,0 1.052,-0.472 1.052,-1.053 0,-0.582 -0.471,-1.054 -1.052,-1.054" /><path
       inkscape:connector-curvature="0"
       id="path360"
       style="fill:#385db4;fill-opacity:1;fill-rule:nonzero;stroke:none;stroke-width:0.1"
       d="m 89.6746,397.918 c 0,-2.54 2.0672,-4.607 4.6074,-4.607 2.5407,0 4.6075,2.067 4.6075,4.607 0,2.541 -2.0668,4.608 -4.6075,4.608 -2.5402,0 -4.6074,-2.067 -4.6074,-4.608 z m -2.1062,0 c 0,3.703 3.0117,6.714 6.7136,6.714 3.702,0 6.714,-3.011 6.714,-6.714 0,-3.702 -3.012,-6.713 -6.714,-6.713 -3.7019,0 -6.7136,3.011 -6.7136,6.713" /><path
       inkscape:connector-curvature="0"
       id="path362"
       style="fill:#3d89d1;fill-opacity:1;fill-rule:nonzero;stroke:none;stroke-width:0.1"
       d="m 62.7129,372.328 c 0,-2.54 2.0668,-4.607 4.6074,-4.607 2.5406,0 4.6074,2.067 4.6074,4.607 0,2.541 -2.0668,4.608 -4.6074,4.608 -2.5406,0 -4.6074,-2.067 -4.6074,-4.608 z m -2.1066,0 c 0,3.702 3.0125,6.714 6.714,6.714 3.7016,0 6.7141,-3.012 6.7141,-6.714 0,-3.702 -3.0125,-6.714 -6.7141,-6.714 -3.7015,0 -6.714,3.012 -6.714,6.714" /><path
       inkscape:connector-curvature="0"
       id="path364"
       style="fill:#385db4;fill-opacity:1;fill-rule:nonzero;stroke:none;stroke-width:0.1"
       d="m 46.6484,362.907 c 0.5817,0 1.0532,0.471 1.0532,1.053 v 4.644 c 0,0.582 -0.4715,1.053 -1.0532,1.053 -0.5816,0 -1.0531,-0.471 -1.0531,-1.053 v -4.644 c 0,-0.582 0.4715,-1.053 1.0531,-1.053" /><path
       inkscape:connector-curvature="0"
       id="path366"
       style="fill:#385db4;fill-opacity:1;fill-rule:nonzero;stroke:none;stroke-width:0.1"
       d="m 46.6484,354.779 c 0.5817,0 1.0532,0.471 1.0532,1.054 v 4.644 c 0,0.581 -0.4715,1.053 -1.0532,1.053 -0.5816,0 -1.0531,-0.472 -1.0531,-1.053 v -4.644 c 0,-0.583 0.4715,-1.054 1.0531,-1.054" /><path
       inkscape:connector-curvature="0"
       id="path368"
       style="fill:#385db4;fill-opacity:1;fill-rule:nonzero;stroke:none;stroke-width:0.1"
       d="m 40.1293,361.165 h 4.1719 c 0.5816,0 1.0535,0.472 1.0535,1.053 0,0.582 -0.4719,1.053 -1.0535,1.053 h -4.1719 c -0.5813,0 -1.0531,-0.471 -1.0531,-1.053 0,-0.581 0.4718,-1.053 1.0531,-1.053" /><path
       inkscape:connector-curvature="0"
       id="path370"
       style="fill:#385db4;fill-opacity:1;fill-rule:nonzero;stroke:none;stroke-width:0.1"
       d="m 48.9949,361.165 h 4.1727 c 0.5812,0 1.0527,0.472 1.0527,1.053 0,0.582 -0.4715,1.053 -1.0527,1.053 h -4.1727 c -0.5812,0 -1.0523,-0.471 -1.0523,-1.053 0,-0.581 0.4711,-1.053 1.0523,-1.053" /><path
       inkscape:connector-curvature="0"
       id="path372"
       style="fill:#373d9c;fill-opacity:1;fill-rule:nonzero;stroke:none;stroke-width:0.1"
       d="m 70.9148,398.607 c 0.5813,0 1.0532,0.472 1.0532,1.053 v 4.644 c 0,0.582 -0.4719,1.053 -1.0532,1.053 -0.5812,0 -1.0531,-0.471 -1.0531,-1.053 v -4.644 c 0,-0.581 0.4719,-1.053 1.0531,-1.053" /><path
       inkscape:connector-curvature="0"
       id="path374"
       style="fill:#373d9c;fill-opacity:1;fill-rule:nonzero;stroke:none;stroke-width:0.1"
       d="m 70.9148,390.479 c 0.5813,0 1.0532,0.472 1.0532,1.054 v 4.644 c 0,0.581 -0.4719,1.053 -1.0532,1.053 -0.5812,0 -1.0531,-0.472 -1.0531,-1.053 v -4.644 c 0,-0.582 0.4719,-1.054 1.0531,-1.054" /><path
       inkscape:connector-curvature="0"
       id="path376"
       style="fill:#373d9c;fill-opacity:1;fill-rule:nonzero;stroke:none;stroke-width:0.1"
       d="m 64.3961,396.865 h 4.1719 c 0.5812,0 1.0531,0.472 1.0531,1.053 0,0.582 -0.4719,1.054 -1.0531,1.054 h -4.1719 c -0.5816,0 -1.0531,-0.472 -1.0531,-1.054 0,-0.581 0.4715,-1.053 1.0531,-1.053" /><path
       inkscape:connector-curvature="0"
       id="path378"
       style="fill:#373d9c;fill-opacity:1;fill-rule:nonzero;stroke:none;stroke-width:0.1"
       d="m 73.2617,396.865 h 4.1719 c 0.5816,0 1.0531,0.472 1.0531,1.053 0,0.582 -0.4715,1.054 -1.0531,1.054 h -4.1719 c -0.5816,0 -1.0531,-0.472 -1.0531,-1.054 0,-0.581 0.4715,-1.053 1.0531,-1.053" /><path
       inkscape:connector-curvature="0"
       id="path380"
       style="fill:#abdde7;fill-opacity:1;fill-rule:nonzero;stroke:none;stroke-width:0.1"
       d="m 271.689,397.436 c -0.121,-0.013 -0.247,0.004 -0.368,0.055 -1.278,0.539 -2.027,0.791 -2.035,0.793 -0.391,0.131 -0.602,0.554 -0.473,0.946 0.132,0.392 0.555,0.603 0.947,0.473 0.032,-0.011 0.804,-0.27 2.142,-0.834 0.381,-0.161 0.56,-0.599 0.399,-0.98 -0.11,-0.26 -0.349,-0.426 -0.612,-0.453" /><path
       inkscape:connector-curvature="0"
       id="path382"
       style="fill:#abdde7;fill-opacity:1;fill-rule:nonzero;stroke:none;stroke-width:0.1"
       d="m 309.799,357.328 c 0.509,-1.357 0.985,-2.756 1.416,-4.159 0.107,-0.348 0.444,-0.561 0.793,-0.524 0.047,0.004 0.095,0.014 0.141,0.029 0.395,0.121 0.618,0.539 0.496,0.934 -0.44,1.432 -0.926,2.86 -1.445,4.245 -0.145,0.386 -0.574,0.582 -0.963,0.437 -0.386,-0.145 -0.583,-0.576 -0.438,-0.962" /><path
       inkscape:connector-curvature="0"
       id="path384"
       style="fill:#abdde7;fill-opacity:1;fill-rule:nonzero;stroke:none;stroke-width:0.1"
       d="m 312.38,348.932 c 0.343,-1.405 0.653,-2.851 0.921,-4.299 0.071,-0.386 0.428,-0.648 0.813,-0.608 0.019,0.003 0.038,0.005 0.059,0.009 0.405,0.075 0.674,0.466 0.598,0.871 -0.273,1.475 -0.588,2.949 -0.938,4.381 -0.098,0.401 -0.503,0.647 -0.903,0.549 -0.402,-0.097 -0.648,-0.502 -0.55,-0.903" /><path
       inkscape:connector-curvature="0"
       id="path386"
       style="fill:#abdde7;fill-opacity:1;fill-rule:nonzero;stroke:none;stroke-width:0.1"
       d="m 315.534,326.35 c 0.371,0.039 0.662,0.35 0.668,0.732 0.024,1.501 0.013,3.006 -0.032,4.475 -0.012,0.413 -0.358,0.737 -0.77,0.725 -0.419,-0.015 -0.737,-0.358 -0.724,-0.77 0.043,-1.447 0.053,-2.929 0.031,-4.407 -0.006,-0.413 0.323,-0.752 0.736,-0.759 0.031,-10e-4 0.061,10e-4 0.091,0.004" /><path
       inkscape:connector-curvature="0"
       id="path388"
       style="fill:#abdde7;fill-opacity:1;fill-rule:nonzero;stroke:none;stroke-width:0.1"
       d="m 314.629,341.127 c -0.41,-0.053 -0.699,-0.429 -0.646,-0.838 0.088,-0.676 0.168,-1.359 0.239,-2.03 0.082,-0.775 0.155,-1.565 0.216,-2.349 0.032,-0.411 0.392,-0.719 0.804,-0.687 0.007,10e-4 0.014,0.002 0.021,0.002 0.401,0.043 0.698,0.398 0.666,0.802 -0.063,0.798 -0.136,1.601 -0.22,2.389 -0.071,0.683 -0.153,1.377 -0.243,2.066 -0.052,0.403 -0.417,0.689 -0.82,0.647 -0.005,-0.001 -0.012,-0.001 -0.017,-0.002" /><path
       inkscape:connector-curvature="0"
       id="path390"
       style="fill:#abdde7;fill-opacity:1;fill-rule:nonzero;stroke:none;stroke-width:0.1"
       d="m 308.131,361.391 c 0.136,-0.304 0.448,-0.472 0.761,-0.439 0.077,0.008 0.153,0.028 0.227,0.061 0.377,0.169 0.546,0.611 0.377,0.988 -0.609,1.362 -1.268,2.72 -1.961,4.035 -0.192,0.366 -0.643,0.506 -1.01,0.314 -0.365,-0.192 -0.505,-0.644 -0.313,-1.01 0.677,-1.288 1.322,-2.616 1.919,-3.949" /><path
       inkscape:connector-curvature="0"
       id="path392"
       style="fill:#abdde7;fill-opacity:1;fill-rule:nonzero;stroke:none;stroke-width:0.1"
       d="m 275.293,395.632 c 1.284,-0.655 2.58,-1.37 3.852,-2.123 0.144,-0.085 0.304,-0.116 0.458,-0.1 0.228,0.024 0.441,0.151 0.567,0.362 0.21,0.356 0.093,0.814 -0.263,1.025 -1.299,0.768 -2.622,1.498 -3.933,2.168 -0.368,0.188 -0.819,0.042 -1.006,-0.325 -0.188,-0.368 -0.042,-0.818 0.325,-1.007" /><path
       inkscape:connector-curvature="0"
       id="path394"
       style="fill:#abdde7;fill-opacity:1;fill-rule:nonzero;stroke:none;stroke-width:0.1"
       d="m 286.436,388.591 c 0.159,-0.12 0.35,-0.168 0.534,-0.149 0.197,0.021 0.385,0.12 0.515,0.29 0.25,0.328 0.188,0.797 -0.14,1.048 -1.185,0.904 -2.41,1.784 -3.645,2.617 -0.343,0.23 -0.806,0.141 -1.038,-0.202 -0.231,-0.342 -0.141,-0.807 0.202,-1.038 1.21,-0.816 2.412,-1.679 3.572,-2.566" /><path
       inkscape:connector-curvature="0"
       id="path396"
       style="fill:#abdde7;fill-opacity:1;fill-rule:nonzero;stroke:none;stroke-width:0.1"
       d="m 299.002,376.348 c 0.165,-0.206 0.418,-0.302 0.663,-0.276 0.137,0.014 0.272,0.067 0.388,0.16 0.322,0.258 0.375,0.728 0.116,1.051 -0.929,1.16 -1.909,2.309 -2.912,3.413 -0.279,0.306 -0.751,0.329 -1.057,0.051 -0.305,-0.278 -0.328,-0.751 -0.051,-1.057 0.984,-1.081 1.943,-2.206 2.853,-3.342" /><path
       inkscape:connector-curvature="0"
       id="path398"
       style="fill:#abdde7;fill-opacity:1;fill-rule:nonzero;stroke:none;stroke-width:0.1"
       d="m 293.095,382.85 c 0.165,-0.161 0.387,-0.23 0.6,-0.207 0.168,0.017 0.33,0.091 0.457,0.222 0.288,0.296 0.282,0.769 -0.014,1.057 -1.064,1.035 -2.177,2.055 -3.31,3.031 -0.312,0.27 -0.785,0.234 -1.054,-0.079 -0.27,-0.312 -0.235,-0.785 0.079,-1.054 1.109,-0.957 2.2,-1.956 3.242,-2.97" /><path
       inkscape:connector-curvature="0"
       id="path400"
       style="fill:#abdde7;fill-opacity:1;fill-rule:nonzero;stroke:none;stroke-width:0.1"
       d="m 304.045,369.16 c 0.155,-0.255 0.439,-0.384 0.717,-0.354 0.107,0.011 0.213,0.046 0.311,0.105 0.353,0.215 0.463,0.676 0.248,1.028 -0.776,1.271 -1.603,2.535 -2.459,3.754 -0.236,0.338 -0.702,0.42 -1.041,0.183 -0.339,-0.238 -0.42,-0.704 -0.182,-1.042 0.837,-1.193 1.646,-2.43 2.406,-3.674" /><path
       inkscape:connector-curvature="0"
       id="path402"
       style="fill:#3d89d1;fill-opacity:1;fill-rule:nonzero;stroke:none;stroke-width:0.1"
       d="m 271.675,402.552 3.272,12.12 -40.097,-0.344 z" /><path
       inkscape:connector-curvature="0"
       id="path404"
       style="fill:#385db4;fill-opacity:1;fill-rule:nonzero;stroke:none;stroke-width:0.1"
       d="m 234.85,414.329 34.879,-14.703 0.092,-0.04 1.5,-2.485 0.354,5.451 -36.825,11.777" /><path
       inkscape:connector-curvature="0"
       id="path406"
       style="fill:#385db4;fill-opacity:1;fill-rule:nonzero;stroke:none;stroke-width:0.1"
       d="m 271.321,397.101 -3.251,0.512 1.751,1.973 z" /><path
       inkscape:connector-curvature="0"
       id="path408"
       style="fill:#3d89d1;fill-opacity:1;fill-rule:nonzero;stroke:none;stroke-width:0.1"
       d="m 265.433,401.436 4.389,-1.85 -9.04,-10.184 -25.932,24.926 30.583,-12.892" /><path
       inkscape:connector-curvature="0"
       id="path410"
       style="fill:#373d9c;fill-opacity:1;fill-rule:nonzero;stroke:none;stroke-width:0.1"
       d="M 456.056,83.6871 V 82.957 c 0,-4.2148 -3.418,-7.632 -7.635,-7.632 H 52.473 c -4.2164,0 -7.6316,3.4172 -7.6316,7.632 v 0.7301 c 0,4.2141 3.4152,7.632 7.6316,7.632 h 395.948 c 4.217,0 7.635,-3.4179 7.635,-7.632" /><path
       inkscape:connector-curvature="0"
       id="path412"
       style="fill:#385db4;fill-opacity:1;fill-rule:nonzero;stroke:none;stroke-width:0.1"
       d="M 456.056,83.6871 V 83.3219 H 44.8414 v 0.3652 c 0,4.2141 3.4152,7.632 7.6316,7.632 h 395.948 c 4.217,0 7.635,-3.4179 7.635,-7.632" /><path
       inkscape:connector-curvature="0"
       id="path414"
       style="fill:#2f335d;fill-opacity:1;fill-rule:nonzero;stroke:none;stroke-width:0.1"
       d="M 311.044,115.329 H 186.659 c -2.972,0 -5.382,2.409 -5.382,5.381 v 65.077 c 0,2.972 2.41,5.381 5.382,5.381 h 124.385 c 2.972,0 5.381,-2.409 5.381,-5.381 V 120.71 c 0,-2.972 -2.409,-5.381 -5.381,-5.381" /><path
       inkscape:connector-curvature="0"
       id="path416"
       style="fill:#1c1a2c;fill-opacity:1;fill-rule:nonzero;stroke:none;stroke-width:0.1"
       d="m 259.316,91.5551 h -20.93 v 23.8599 h 20.93 V 91.5551" /><path
       inkscape:connector-curvature="0"
       id="path418"
       style="fill:#35527f;fill-opacity:1;fill-rule:nonzero;stroke:none;stroke-width:0.1"
       d="m 259.006,152.319 c 0,-5.737 -4.652,-10.388 -10.388,-10.388 -5.738,0 -10.389,4.651 -10.389,10.388 0,5.737 4.651,10.388 10.389,10.388 5.736,0 10.388,-4.651 10.388,-10.388" /><path
       inkscape:connector-curvature="0"
       id="path420"
       style="fill:#2f335d;fill-opacity:1;fill-rule:nonzero;stroke:none;stroke-width:0.1"
       d="m 275.511,91.5551 h -53.988 v 1.8187 c 0,3.6703 2.975,6.6462 6.645,6.6462 h 40.697 c 3.67,0 6.646,-2.9759 6.646,-6.6462 v -1.8187" /></g></svg>